<svg width="20" height="18" viewBox="0 0 20 18" fill="none" xmlns="http://www.w3.org/2000/svg">
<path d="M20 2.12968C19.2639 2.49108 18.4741 2.73618 17.6442 2.8456C18.4915 2.28339 19.1402 1.39164 19.4476 0.332323C18.6527 0.852967 17.7754 1.23102 16.8406 1.43596C16.092 0.551131 15.0271 0 13.8461 0C11.5803 0 9.74312 2.03554 9.74312 4.54465C9.74312 4.90051 9.77936 5.24808 9.84936 5.58044C6.44001 5.3907 3.41684 3.58089 1.39347 0.830807C1.03977 1.50103 0.838563 2.28198 0.838563 3.11561C0.838563 4.69282 1.56343 6.08446 2.66324 6.89865C1.99085 6.87374 1.35847 6.6688 0.804838 6.32815V6.38492C0.804838 8.58662 2.21958 10.4241 4.09546 10.8423C3.75177 10.9448 3.38935 11.0016 3.01442 11.0016C2.74948 11.0016 2.49327 10.9725 2.24206 10.9171C2.76445 12.7242 4.27919 14.0383 6.07387 14.0743C4.67037 15.2929 2.90069 16.0171 0.978564 16.0171C0.647387 16.0171 0.321177 15.9949 0 15.9548C1.81592 17.2467 3.97177 18 6.28883 18C13.8362 18 17.9617 11.0736 17.9617 5.06671L17.9479 4.47821C18.754 3.84119 19.4513 3.04084 20 2.12968Z" fill="#D4D7E6"/>
</svg>
