<svg width="185" height="24" viewBox="0 0 185 24" fill="none" xmlns="http://www.w3.org/2000/svg">
<rect x="0.0240021" y="11" width="87" height="13" fill="#B79C10"/>
<path d="M15.192 5.608L7.44 24H3.024L5.448 18.544L0 5.608H4.584L7.68 13.984L10.752 5.608H15.192Z" fill="white"/>
<path d="M30.5001 12.088C30.5001 12.472 30.4761 12.872 30.4281 13.288H21.1401C21.2041 14.12 21.4681 14.76 21.9321 15.208C22.4121 15.64 22.9961 15.856 23.6841 15.856C24.7081 15.856 25.4201 15.424 25.8201 14.56H30.1881C29.9641 15.44 29.5561 16.232 28.9641 16.936C28.3881 17.64 27.6601 18.192 26.7801 18.592C25.9001 18.992 24.9161 19.192 23.8281 19.192C22.5161 19.192 21.3481 18.912 20.3241 18.352C19.3001 17.792 18.5001 16.992 17.9241 15.952C17.3481 14.912 17.0601 13.696 17.0601 12.304C17.0601 10.912 17.3401 9.696 17.9001 8.656C18.4761 7.616 19.2761 6.816 20.3001 6.256C21.3241 5.696 22.5001 5.416 23.8281 5.416C25.1241 5.416 26.2761 5.688 27.2841 6.232C28.2921 6.776 29.0761 7.552 29.6361 8.56C30.2121 9.568 30.5001 10.744 30.5001 12.088ZM26.3001 11.008C26.3001 10.304 26.0601 9.744 25.5801 9.328C25.1001 8.912 24.5001 8.704 23.7801 8.704C23.0921 8.704 22.5081 8.904 22.0281 9.304C21.5641 9.704 21.2761 10.272 21.1641 11.008H26.3001Z" fill="white"/>
<path d="M37.9691 1.24872e-05V19H33.8651V1.24872e-05H37.9691Z" fill="white"/>
<path d="M46.2472 1.24872e-05V19H42.1432V1.24872e-05H46.2472Z" fill="white"/>
<path d="M56.5174 19.192C55.2054 19.192 54.0214 18.912 52.9654 18.352C51.9254 17.792 51.1014 16.992 50.4934 15.952C49.9014 14.912 49.6054 13.696 49.6054 12.304C49.6054 10.928 49.9094 9.72 50.5174 8.68C51.1254 7.624 51.9574 6.816 53.0134 6.256C54.0694 5.696 55.2534 5.416 56.5654 5.416C57.8774 5.416 59.0614 5.696 60.1174 6.256C61.1734 6.816 62.0054 7.624 62.6134 8.68C63.2214 9.72 63.5254 10.928 63.5254 12.304C63.5254 13.68 63.2134 14.896 62.5894 15.952C61.9814 16.992 61.1414 17.792 60.0694 18.352C59.0134 18.912 57.8294 19.192 56.5174 19.192ZM56.5174 15.64C57.3014 15.64 57.9654 15.352 58.5094 14.776C59.0694 14.2 59.3494 13.376 59.3494 12.304C59.3494 11.232 59.0774 10.408 58.5334 9.832C58.0054 9.256 57.3494 8.968 56.5654 8.968C55.7654 8.968 55.1014 9.256 54.5734 9.832C54.0454 10.392 53.7814 11.216 53.7814 12.304C53.7814 13.376 54.0374 14.2 54.5494 14.776C55.0774 15.352 55.7334 15.64 56.5174 15.64Z" fill="white"/>
<path d="M86.1266 5.608L82.5026 19H77.9666L75.8546 10.312L73.6706 19H69.1586L65.5106 5.608H69.6146L71.5106 15.184L73.7666 5.608H78.1106L80.3906 15.136L82.2626 5.608H86.1266Z" fill="white"/>
<path d="M96.9317 19L92.4197 13.336V19H89.0597V1.24872e-05H92.4197V11.344L96.8837 5.704H101.252L95.3957 12.376L101.3 19H96.9317Z" fill="white"/>
<path d="M105.96 3.96801C105.368 3.96801 104.872 3.78401 104.472 3.41601C104.088 3.03201 103.896 2.56001 103.896 2.00001C103.896 1.44001 104.088 0.976012 104.472 0.608012C104.872 0.224012 105.368 0.0320121 105.96 0.0320121C106.552 0.0320121 107.04 0.224012 107.424 0.608012C107.824 0.976012 108.024 1.44001 108.024 2.00001C108.024 2.56001 107.824 3.03201 107.424 3.41601C107.04 3.78401 106.552 3.96801 105.96 3.96801ZM107.635 5.704V19H104.275V5.704H107.635Z" fill="white"/>
<path d="M116.067 8.464V14.896C116.067 15.344 116.171 15.672 116.379 15.88C116.603 16.072 116.971 16.168 117.483 16.168H119.043V19H116.931C114.099 19 112.683 17.624 112.683 14.872V8.464H111.099V5.704H112.683L112.64 0H116.024L116.067 5.704H119.043V8.464H116.067Z" fill="white"/>
<path d="M121.796 12.352C121.796 10.976 122.076 9.776 122.636 8.752C123.196 7.712 123.972 6.912 124.964 6.352C125.956 5.776 127.092 5.488 128.372 5.488C130.02 5.488 131.38 5.904 132.452 6.736C133.54 7.552 134.268 8.704 134.636 10.192H131.012C130.82 9.616 130.492 9.168 130.028 8.848C129.58 8.512 129.02 8.344 128.348 8.344C127.388 8.344 126.628 8.696 126.068 9.4C125.508 10.088 125.228 11.072 125.228 12.352C125.228 13.616 125.508 14.6 126.068 15.304C126.628 15.992 127.388 16.336 128.348 16.336C129.708 16.336 130.596 15.728 131.012 14.512H134.636C134.268 15.952 133.54 17.096 132.452 17.944C131.364 18.792 130.004 19.216 128.372 19.216C127.092 19.216 125.956 18.936 124.964 18.376C123.972 17.8 123.196 17 122.636 15.976C122.076 14.936 121.796 13.728 121.796 12.352Z" fill="white"/>
<path d="M145.785 5.512C146.793 5.512 147.689 5.736 148.473 6.184C149.257 6.616 149.865 7.264 150.297 8.128C150.745 8.976 150.969 10 150.969 11.2V19H147.609V11.656C147.609 10.6 147.345 9.792 146.817 9.232C146.289 8.656 145.569 8.368 144.657 8.368C143.729 8.368 142.993 8.656 142.449 9.232C141.921 9.792 141.657 10.6 141.657 11.656V19H138.297V0H141.657V7.36C142.089 6.784 142.665 6.336 143.385 6.016C144.105 5.68 144.905 5.512 145.785 5.512Z" fill="white"/>
<path d="M167.724 12.064C167.724 12.544 167.692 12.976 167.628 13.36H157.908C157.988 14.32 158.324 15.072 158.916 15.616C159.508 16.16 160.236 16.432 161.1 16.432C162.348 16.432 163.236 15.896 163.764 14.824H167.388C167.004 16.104 166.268 17.16 165.18 17.992C164.092 18.808 162.756 19.216 161.172 19.216C159.892 19.216 158.74 18.936 157.716 18.376C156.708 17.8 155.916 16.992 155.34 15.952C154.78 14.912 154.5 13.712 154.5 12.352C154.5 10.976 154.78 9.768 155.34 8.728C155.9 7.688 156.684 6.888 157.692 6.328C158.7 5.768 159.86 5.488 161.172 5.488C162.436 5.488 163.564 5.76 164.556 6.304C165.564 6.848 166.34 7.624 166.884 8.632C167.444 9.624 167.724 10.768 167.724 12.064ZM164.244 11.104C164.228 10.24 163.916 9.552 163.308 9.04C162.7 8.512 161.956 8.248 161.076 8.248C160.244 8.248 159.54 8.504 158.964 9.016C158.404 9.512 158.06 10.208 157.932 11.104H164.244Z" fill="white"/>
<path d="M178.745 5.512C180.329 5.512 181.609 6.016 182.585 7.024C183.561 8.016 184.049 9.408 184.049 11.2V19H180.689V11.656C180.689 10.6 180.425 9.792 179.897 9.232C179.369 8.656 178.649 8.368 177.737 8.368C176.809 8.368 176.073 8.656 175.529 9.232C175.001 9.792 174.737 10.6 174.737 11.656V19H171.377V5.704H174.737V7.36C175.185 6.784 175.753 6.336 176.441 6.016C177.145 5.68 177.913 5.512 178.745 5.512Z" fill="white"/>
</svg>
