<svg width="181" height="104" viewBox="0 0 181 104" fill="none" xmlns="http://www.w3.org/2000/svg">
<path d="M3.088 86.08V90H7.44V90.976H3.088V96H1.84V85.12H8.08V86.08H3.088ZM14.7753 88.368C14.2739 88.368 13.7886 88.464 13.3193 88.656C12.8499 88.848 12.3326 89.2053 11.7673 89.728V96H10.5673V87.552H11.5113L11.7353 88.704C12.2579 88.1707 12.7593 87.7973 13.2393 87.584C13.7299 87.36 14.2419 87.248 14.7753 87.248V88.368ZM23.6856 94.752C22.811 95.7867 21.755 96.304 20.5176 96.304C19.6536 96.304 18.923 96.1013 18.3256 95.696C17.7283 95.2907 17.2803 94.7467 16.9816 94.064C16.683 93.3707 16.5336 92.6133 16.5336 91.792C16.5336 90.9493 16.683 90.1867 16.9816 89.504C17.2803 88.8107 17.7283 88.2613 18.3256 87.856C18.923 87.4507 19.6536 87.248 20.5176 87.248C21.1043 87.248 21.6376 87.3707 22.1176 87.616C22.5976 87.8507 22.9763 88.2027 23.2536 88.672C23.531 89.1307 23.6696 89.6747 23.6696 90.304C23.6696 90.5707 23.6376 90.864 23.5736 91.184H17.7816C17.7603 91.44 17.7496 91.632 17.7496 91.76C17.7496 92.8373 17.9896 93.7067 18.4696 94.368C18.9496 95.0187 19.6376 95.344 20.5336 95.344C21.0776 95.344 21.563 95.2267 21.9896 94.992C22.4163 94.7467 22.8163 94.416 23.1896 94L23.6856 94.752ZM20.5016 88.16C19.8403 88.16 19.291 88.352 18.8536 88.736C18.427 89.1093 18.123 89.6213 17.9416 90.272H22.4696V90.16C22.4696 89.52 22.2723 89.0293 21.8776 88.688C21.4936 88.336 21.035 88.16 20.5016 88.16ZM28.76 96.304C28.1093 96.304 27.5493 96.2347 27.08 96.096C26.6107 95.9573 26.1733 95.744 25.768 95.456L26.184 94.56C26.8453 95.0827 27.704 95.344 28.76 95.344C29.336 95.344 29.8 95.2053 30.152 94.928C30.5147 94.6507 30.696 94.2613 30.696 93.76C30.696 93.472 30.6053 93.232 30.424 93.04C30.2533 92.848 30.04 92.688 29.784 92.56C29.528 92.432 29.1707 92.2827 28.712 92.112C28.1573 91.9093 27.704 91.7227 27.352 91.552C27.0107 91.3707 26.7173 91.1253 26.472 90.816C26.2267 90.496 26.104 90.0907 26.104 89.6C26.104 88.8427 26.3653 88.2613 26.888 87.856C27.4213 87.4507 28.104 87.248 28.936 87.248C29.96 87.248 30.856 87.5253 31.624 88.08L31.224 88.96C30.5413 88.448 29.784 88.192 28.952 88.192C28.4507 88.192 28.0453 88.304 27.736 88.528C27.4267 88.752 27.272 89.088 27.272 89.536C27.272 89.824 27.3573 90.0693 27.528 90.272C27.7093 90.464 27.928 90.624 28.184 90.752C28.44 90.8693 28.7973 91.008 29.256 91.168C29.832 91.3813 30.2853 91.5787 30.616 91.76C30.9573 91.9307 31.2507 92.176 31.496 92.496C31.7413 92.816 31.864 93.2267 31.864 93.728C31.864 94.5173 31.576 95.1467 31 95.616C30.4347 96.0747 29.688 96.304 28.76 96.304ZM38.8206 87.248C39.7273 87.248 40.346 87.4827 40.6766 87.952C41.018 88.4213 41.1886 89.0987 41.1886 89.984V96H39.9886V90.08C39.9886 89.4293 39.8766 88.96 39.6526 88.672C39.4393 88.3733 39.0713 88.224 38.5486 88.224C38.1433 88.224 37.7273 88.3253 37.3006 88.528C36.874 88.72 36.3993 89.0187 35.8766 89.424V96H34.6766V83.2H35.8766V88.416C36.89 87.6373 37.8713 87.248 38.8206 87.248ZM51.4163 96.304C50.7656 96.304 50.2056 96.2347 49.7363 96.096C49.2669 95.9573 48.8296 95.744 48.4243 95.456L48.8403 94.56C49.5016 95.0827 50.3603 95.344 51.4163 95.344C51.9923 95.344 52.4563 95.2053 52.8083 94.928C53.1709 94.6507 53.3523 94.2613 53.3523 93.76C53.3523 93.472 53.2616 93.232 53.0803 93.04C52.9096 92.848 52.6963 92.688 52.4403 92.56C52.1843 92.432 51.8269 92.2827 51.3683 92.112C50.8136 91.9093 50.3603 91.7227 50.0082 91.552C49.6669 91.3707 49.3736 91.1253 49.1283 90.816C48.8829 90.496 48.7603 90.0907 48.7603 89.6C48.7603 88.8427 49.0216 88.2613 49.5443 87.856C50.0776 87.4507 50.7603 87.248 51.5923 87.248C52.6163 87.248 53.5123 87.5253 54.2803 88.08L53.8803 88.96C53.1976 88.448 52.4403 88.192 51.6083 88.192C51.1069 88.192 50.7016 88.304 50.3923 88.528C50.0829 88.752 49.9283 89.088 49.9283 89.536C49.9283 89.824 50.0136 90.0693 50.1843 90.272C50.3656 90.464 50.5843 90.624 50.8403 90.752C51.0963 90.8693 51.4536 91.008 51.9123 91.168C52.4883 91.3813 52.9416 91.5787 53.2723 91.76C53.6136 91.9307 53.9069 92.176 54.1523 92.496C54.3976 92.816 54.5203 93.2267 54.5203 93.728C54.5203 94.5173 54.2323 95.1467 53.6563 95.616C53.0909 96.0747 52.3443 96.304 51.4163 96.304ZM64.1809 96C63.8075 96.1387 63.4502 96.2133 63.1089 96.224C62.2129 96.224 61.7329 95.824 61.6689 95.024C60.6235 95.8347 59.6849 96.24 58.8529 96.24C58.1915 96.24 57.6475 96.0533 57.2209 95.68C56.8049 95.296 56.5969 94.8107 56.5969 94.224C56.5969 93.7013 56.7409 93.264 57.0289 92.912C57.3275 92.56 57.7382 92.2667 58.2609 92.032C58.7835 91.7973 59.4822 91.5573 60.3569 91.312L61.6529 90.944V90.224C61.6529 88.8907 61.1622 88.224 60.1809 88.224C59.6369 88.224 59.1409 88.336 58.6929 88.56C58.2555 88.784 57.7595 89.2107 57.2049 89.84L56.6129 89.12C57.7222 87.872 58.9649 87.248 60.3409 87.248C61.2475 87.248 61.8929 87.4827 62.2769 87.952C62.6715 88.4107 62.8689 89.184 62.8689 90.272V94.624C62.8689 94.8587 62.9062 95.0293 62.9809 95.136C63.0662 95.232 63.1995 95.28 63.3809 95.28C63.5729 95.28 63.8022 95.2213 64.0689 95.104L64.1809 96ZM57.7969 94.16C57.7969 94.5547 57.9089 94.8427 58.1329 95.024C58.3569 95.1947 58.6555 95.28 59.0289 95.28C59.4235 95.28 59.8182 95.184 60.2129 94.992C60.6182 94.7893 61.0982 94.4853 61.6529 94.08V91.792L60.6449 92.096C59.5889 92.4053 58.8475 92.7093 58.4209 93.008C58.0049 93.3067 57.7969 93.6907 57.7969 94.16ZM66.5516 83.2H67.7516V96H66.5516V83.2ZM78.1809 96C77.8075 96.1387 77.4502 96.2133 77.1089 96.224C76.2129 96.224 75.7329 95.824 75.6689 95.024C74.6235 95.8347 73.6849 96.24 72.8529 96.24C72.1915 96.24 71.6475 96.0533 71.2209 95.68C70.8049 95.296 70.5969 94.8107 70.5969 94.224C70.5969 93.7013 70.7409 93.264 71.0289 92.912C71.3275 92.56 71.7382 92.2667 72.2609 92.032C72.7835 91.7973 73.4822 91.5573 74.3569 91.312L75.6529 90.944V90.224C75.6529 88.8907 75.1622 88.224 74.1809 88.224C73.6369 88.224 73.1409 88.336 72.6929 88.56C72.2555 88.784 71.7595 89.2107 71.2049 89.84L70.6129 89.12C71.7222 87.872 72.9649 87.248 74.3409 87.248C75.2475 87.248 75.8929 87.4827 76.2769 87.952C76.6715 88.4107 76.8689 89.184 76.8689 90.272V94.624C76.8689 94.8587 76.9062 95.0293 76.9809 95.136C77.0662 95.232 77.1995 95.28 77.3809 95.28C77.5729 95.28 77.8022 95.2213 78.0689 95.104L78.1809 96ZM71.7969 94.16C71.7969 94.5547 71.9089 94.8427 72.1329 95.024C72.3569 95.1947 72.6555 95.28 73.0289 95.28C73.4235 95.28 73.8182 95.184 74.2129 94.992C74.6182 94.7893 75.0982 94.4853 75.6529 94.08V91.792L74.6449 92.096C73.5889 92.4053 72.8475 92.7093 72.4209 93.008C72.0049 93.3067 71.7969 93.6907 71.7969 94.16ZM86.8716 83.2V96H85.9276L85.7836 95.28C85.0263 95.9627 84.1676 96.304 83.2076 96.304C82.5356 96.304 81.9383 96.1333 81.4156 95.792C80.9036 95.4507 80.5036 94.9547 80.2156 94.304C79.9276 93.6427 79.7836 92.8587 79.7836 91.952C79.7836 90.4053 80.1676 89.2373 80.9356 88.448C81.7036 87.648 82.7276 87.248 84.0076 87.248C84.6156 87.248 85.1703 87.3493 85.6716 87.552V83.2H86.8716ZM81.0156 91.952C81.0156 93.1253 81.2343 93.984 81.6716 94.528C82.109 95.0613 82.6423 95.328 83.2716 95.328C83.7303 95.328 84.1356 95.2587 84.4876 95.12C84.8503 94.9707 85.245 94.7253 85.6716 94.384V88.496C85.2343 88.2933 84.6956 88.192 84.0556 88.192C83.0316 88.192 82.269 88.5333 81.7676 89.216C81.2663 89.888 81.0156 90.8 81.0156 91.952ZM89.6099 97.872C90.2712 97.424 90.6019 96.7733 90.6019 95.92C90.6019 95.504 90.5325 95.072 90.3939 94.624L91.5939 94.48C91.6899 94.8747 91.7379 95.248 91.7379 95.6C91.7379 96.2507 91.5885 96.8213 91.2899 97.312C90.9912 97.8027 90.5805 98.1813 90.0579 98.448L89.6099 97.872ZM100.043 85.12H101.291V96H100.043V85.12ZM105.145 83.2H106.345V96H105.145V83.2ZM118.299 85.12C119.536 85.12 120.475 85.4027 121.115 85.968C121.765 86.5333 122.091 87.2907 122.091 88.24C122.091 89.2213 121.771 89.9947 121.131 90.56C120.491 91.1147 119.547 91.392 118.299 91.392H115.979V96H114.731V85.12H118.299ZM118.299 90.432C119.131 90.432 119.76 90.2507 120.187 89.888C120.624 89.5253 120.843 88.9813 120.843 88.256C120.843 87.584 120.624 87.056 120.187 86.672C119.749 86.2773 119.12 86.08 118.299 86.08H115.979V90.432H118.299ZM131.462 96C131.089 96.1387 130.731 96.2133 130.39 96.224C129.494 96.224 129.014 95.824 128.95 95.024C127.905 95.8347 126.966 96.24 126.134 96.24C125.473 96.24 124.929 96.0533 124.502 95.68C124.086 95.296 123.878 94.8107 123.878 94.224C123.878 93.7013 124.022 93.264 124.31 92.912C124.609 92.56 125.019 92.2667 125.542 92.032C126.065 91.7973 126.763 91.5573 127.638 91.312L128.934 90.944V90.224C128.934 88.8907 128.443 88.224 127.462 88.224C126.918 88.224 126.422 88.336 125.974 88.56C125.537 88.784 125.041 89.2107 124.486 89.84L123.894 89.12C125.003 87.872 126.246 87.248 127.622 87.248C128.529 87.248 129.174 87.4827 129.558 87.952C129.953 88.4107 130.15 89.184 130.15 90.272V94.624C130.15 94.8587 130.187 95.0293 130.262 95.136C130.347 95.232 130.481 95.28 130.662 95.28C130.854 95.28 131.083 95.2213 131.35 95.104L131.462 96ZM125.078 94.16C125.078 94.5547 125.19 94.8427 125.414 95.024C125.638 95.1947 125.937 95.28 126.31 95.28C126.705 95.28 127.099 95.184 127.494 94.992C127.899 94.7893 128.379 94.4853 128.934 94.08V91.792L127.926 92.096C126.87 92.4053 126.129 92.7093 125.702 93.008C125.286 93.3067 125.078 93.6907 125.078 94.16ZM136.057 96.304C135.406 96.304 134.846 96.2347 134.377 96.096C133.908 95.9573 133.47 95.744 133.065 95.456L133.481 94.56C134.142 95.0827 135.001 95.344 136.057 95.344C136.633 95.344 137.097 95.2053 137.449 94.928C137.812 94.6507 137.993 94.2613 137.993 93.76C137.993 93.472 137.902 93.232 137.721 93.04C137.55 92.848 137.337 92.688 137.081 92.56C136.825 92.432 136.468 92.2827 136.009 92.112C135.454 91.9093 135.001 91.7227 134.649 91.552C134.308 91.3707 134.014 91.1253 133.769 90.816C133.524 90.496 133.401 90.0907 133.401 89.6C133.401 88.8427 133.662 88.2613 134.185 87.856C134.718 87.4507 135.401 87.248 136.233 87.248C137.257 87.248 138.153 87.5253 138.921 88.08L138.521 88.96C137.838 88.448 137.081 88.192 136.249 88.192C135.748 88.192 135.342 88.304 135.033 88.528C134.724 88.752 134.569 89.088 134.569 89.536C134.569 89.824 134.654 90.0693 134.825 90.272C135.006 90.464 135.225 90.624 135.481 90.752C135.737 90.8693 136.094 91.008 136.553 91.168C137.129 91.3813 137.582 91.5787 137.913 91.76C138.254 91.9307 138.548 92.176 138.793 92.496C139.038 92.816 139.161 93.2267 139.161 93.728C139.161 94.5173 138.873 95.1467 138.297 95.616C137.732 96.0747 136.985 96.304 136.057 96.304ZM142.694 84.672C142.48 84.672 142.294 84.5973 142.134 84.448C141.974 84.288 141.894 84.1013 141.894 83.888C141.894 83.664 141.974 83.472 142.134 83.312C142.294 83.152 142.48 83.072 142.694 83.072C142.918 83.072 143.104 83.152 143.254 83.312C143.414 83.472 143.494 83.664 143.494 83.888C143.494 84.1013 143.414 84.288 143.254 84.448C143.104 84.5973 142.918 84.672 142.694 84.672ZM142.086 87.552H143.286V96H142.086V87.552ZM149.037 87.552H151.597V88.464H149.037V96H147.837V88.464H146.477V87.952L147.837 87.616V86.688C147.837 85.5573 148.072 84.6933 148.541 84.096C149.01 83.488 149.73 83.184 150.701 83.184C151 83.184 151.309 83.2267 151.629 83.312L151.453 84.24C151.218 84.1867 150.994 84.16 150.781 84.16C150.162 84.16 149.714 84.368 149.437 84.784C149.17 85.2 149.037 85.8453 149.037 86.72V87.552ZM154.029 84.672C153.816 84.672 153.629 84.5973 153.469 84.448C153.309 84.288 153.229 84.1013 153.229 83.888C153.229 83.664 153.309 83.472 153.469 83.312C153.629 83.152 153.816 83.072 154.029 83.072C154.253 83.072 154.44 83.152 154.589 83.312C154.749 83.472 154.829 83.664 154.829 83.888C154.829 84.1013 154.749 84.288 154.589 84.448C154.44 84.5973 154.253 84.672 154.029 84.672ZM153.421 87.552H154.621V96H153.421V87.552ZM165.373 88.48L163.421 88.304C163.795 88.7733 163.981 89.3387 163.981 90C163.981 90.512 163.869 90.9813 163.645 91.408C163.421 91.8347 163.08 92.176 162.621 92.432C162.163 92.688 161.608 92.816 160.957 92.816C160.552 92.816 160.2 92.768 159.901 92.672C159.549 92.9813 159.299 93.2267 159.149 93.408C159.011 93.5893 158.941 93.7867 158.941 94C158.941 94.2453 159.032 94.4213 159.213 94.528C159.395 94.6347 159.688 94.688 160.093 94.688H162.861C163.608 94.688 164.184 94.8747 164.589 95.248C165.005 95.6107 165.213 96.1013 165.213 96.72C165.213 97.3173 165.011 97.8613 164.605 98.352C164.2 98.8427 163.64 99.2267 162.925 99.504C162.221 99.792 161.432 99.936 160.557 99.936C159.427 99.936 158.611 99.728 158.109 99.312C157.619 98.896 157.373 98.3733 157.373 97.744C157.373 97.296 157.48 96.9067 157.693 96.576C157.917 96.256 158.269 95.904 158.749 95.52C158.109 95.296 157.789 94.864 157.789 94.224C157.789 93.904 157.885 93.6053 158.077 93.328C158.269 93.04 158.6 92.6987 159.069 92.304C158.696 92.0587 158.408 91.7387 158.205 91.344C158.013 90.9387 157.917 90.5013 157.917 90.032C157.917 89.5307 158.029 89.072 158.253 88.656C158.477 88.2293 158.819 87.888 159.277 87.632C159.736 87.376 160.296 87.248 160.957 87.248C161.523 87.248 162.024 87.3493 162.461 87.552H165.373V88.48ZM160.957 91.904C161.523 91.904 161.965 91.728 162.285 91.376C162.616 91.024 162.781 90.5707 162.781 90.016C162.781 89.472 162.621 89.0293 162.301 88.688C161.981 88.336 161.533 88.16 160.957 88.16C160.392 88.16 159.944 88.336 159.613 88.688C159.293 89.0293 159.133 89.472 159.133 90.016C159.133 90.5707 159.293 91.024 159.613 91.376C159.944 91.728 160.392 91.904 160.957 91.904ZM164.093 96.864C164.093 96.0853 163.635 95.696 162.717 95.696H159.997H159.805C159.379 96.0267 159.053 96.3467 158.829 96.656C158.616 96.9653 158.509 97.3067 158.509 97.68C158.509 98.1493 158.685 98.4853 159.037 98.688C159.4 98.8907 159.907 98.992 160.557 98.992C161.219 98.992 161.816 98.8853 162.349 98.672C162.893 98.4693 163.32 98.2027 163.629 97.872C163.939 97.5413 164.093 97.2053 164.093 96.864ZM168.303 84.672C168.09 84.672 167.903 84.5973 167.743 84.448C167.583 84.288 167.503 84.1013 167.503 83.888C167.503 83.664 167.583 83.472 167.743 83.312C167.903 83.152 168.09 83.072 168.303 83.072C168.527 83.072 168.714 83.152 168.863 83.312C169.023 83.472 169.103 83.664 169.103 83.888C169.103 84.1013 169.023 84.288 168.863 84.448C168.714 84.5973 168.527 84.672 168.303 84.672ZM167.695 87.552H168.895V96H167.695V87.552ZM175.831 96.304C174.967 96.304 174.231 96.1013 173.623 95.696C173.025 95.2907 172.577 94.7467 172.279 94.064C171.98 93.3707 171.831 92.6133 171.831 91.792C171.831 90.9493 171.98 90.1867 172.279 89.504C172.577 88.8107 173.025 88.2613 173.623 87.856C174.231 87.4507 174.967 87.248 175.831 87.248C176.695 87.248 177.425 87.456 178.023 87.872C178.62 88.2773 179.068 88.8267 179.367 89.52C179.665 90.2027 179.815 90.9493 179.815 91.76C179.815 92.5813 179.665 93.3387 179.367 94.032C179.068 94.7253 178.62 95.28 178.023 95.696C177.425 96.1013 176.695 96.304 175.831 96.304ZM175.815 95.344C176.7 95.344 177.383 95.0187 177.863 94.368C178.343 93.7173 178.583 92.8533 178.583 91.776C178.583 90.7093 178.343 89.8453 177.863 89.184C177.383 88.5227 176.7 88.192 175.815 88.192C174.94 88.192 174.263 88.5227 173.783 89.184C173.303 89.8453 173.062 90.7093 173.062 91.776C173.062 92.8533 173.297 93.7173 173.767 94.368C174.247 95.0187 174.929 95.344 175.815 95.344Z" fill="#313030"/>
<path d="M70.282 5.66984C70.0452 5.81189 69.9684 6.11902 70.1105 6.35582L72.4253 10.2148C72.5673 10.4516 72.8745 10.5284 73.1113 10.3864C73.3481 10.2443 73.4249 9.9372 73.2828 9.70039L71.2252 6.2702L74.6554 4.21259C74.8922 4.07054 74.969 3.76342 74.827 3.52661C74.685 3.28981 74.3778 3.21299 74.141 3.35504L70.282 5.66984ZM96 65.6415C96.4556 65.8474 96.4557 65.8472 96.4559 65.8469C96.456 65.8467 96.4561 65.8463 96.4563 65.846C96.4567 65.8452 96.4571 65.8441 96.4577 65.8428C96.4589 65.8401 96.4606 65.8363 96.4628 65.8314C96.4672 65.8216 96.4735 65.8073 96.4817 65.7886C96.4981 65.7513 96.5219 65.6964 96.5525 65.6244C96.6137 65.4806 96.7018 65.2687 96.8109 64.9935C97.0292 64.4432 97.3318 63.6392 97.6718 62.6189C98.3517 60.5789 99.182 57.6712 99.7861 54.1945C100.993 47.2464 101.303 37.9923 97.6677 28.847L96.7385 29.2164C100.282 38.1305 99.9897 47.1814 98.8009 54.0233C98.2069 57.4416 97.3905 60.3003 96.7231 62.3028C96.3895 63.3038 96.0934 64.0902 95.8813 64.6248C95.7753 64.8922 95.6903 65.0965 95.6322 65.2332C95.6032 65.3015 95.5808 65.353 95.5659 65.3869C95.5585 65.4039 95.5529 65.4165 95.5493 65.4246C95.5475 65.4287 95.5461 65.4317 95.5453 65.4335C95.5449 65.4344 95.5446 65.4351 95.5445 65.4354C95.5444 65.4356 95.5443 65.4357 95.5443 65.4358C95.5443 65.4357 95.5444 65.4357 96 65.6415ZM97.6677 28.847C94.0251 19.683 87.2641 13.8755 81.4373 10.3646C78.5225 8.60831 75.8347 7.42243 73.8741 6.67509C72.8935 6.30131 72.094 6.0369 71.5378 5.86549C71.2597 5.77977 71.0424 5.71728 70.8936 5.67599C70.8192 5.65533 70.7619 5.63998 70.7228 5.62965C70.7032 5.6245 70.6881 5.6206 70.6777 5.61793C70.6725 5.61659 70.6685 5.61556 70.6656 5.61483C70.6642 5.61448 70.663 5.61418 70.6622 5.61397C70.6618 5.61387 70.6614 5.61377 70.6612 5.61371C70.6608 5.61363 70.6606 5.61357 70.5393 6.09862C70.4179 6.58368 70.4178 6.58365 70.4178 6.58364C70.4179 6.58366 70.4179 6.58367 70.4181 6.58371C70.4184 6.5838 70.4191 6.58397 70.42 6.5842C70.4218 6.58467 70.4249 6.58544 70.4291 6.58652C70.4375 6.58867 70.4505 6.59204 70.468 6.59665C70.503 6.60588 70.556 6.62009 70.6261 6.63954C70.7662 6.67845 70.9746 6.73831 71.2433 6.82113C71.7807 6.98678 72.5596 7.24421 73.5179 7.60951C75.4352 8.34034 78.0674 9.50158 80.9212 11.2211C86.6317 14.6619 93.2026 20.321 96.7385 29.2164L97.6677 28.847Z" fill="#313030"/>
</svg>
