<svg width="48" height="48" viewBox="0 0 48 48" fill="none" xmlns="http://www.w3.org/2000/svg">
<g clip-path="url(#clip0_242_135)">
<circle cx="23" cy="25" r="23" fill="#FFE145"/>
<path d="M25 46C29.1791 46.0037 33.2797 44.8654 36.8588 42.7079C37.2213 42.4888 37.3375 42.0174 37.1184 41.6549C36.8992 41.2925 36.4278 41.1763 36.0653 41.3954C29.0758 45.5906 20.3131 45.4648 13.4469 41.0707C6.5806 36.6766 2.79572 28.7725 3.67719 20.6684C4.55866 12.5643 9.95436 5.65872 17.6048 2.84356C18.0023 2.69769 18.2064 2.25713 18.0605 1.85954C17.9147 1.46195 17.4741 1.25789 17.0765 1.40376C6.60262 5.24106 0.392024 16.0407 2.34334 27.0234C4.29466 38.0062 13.8453 46.0055 25 46Z" fill="#B79C10"/>
<path d="M32.3953 2.84356C38.451 5.06851 43.1859 9.89765 45.2911 15.996C47.3962 22.0944 46.6487 28.8161 43.2551 34.303C43.1108 34.5358 43.1016 34.8279 43.2311 35.0693C43.3605 35.3108 43.6089 35.4648 43.8827 35.4734C44.1565 35.482 44.4141 35.3438 44.5585 35.111C48.1954 29.2324 48.9969 22.0302 46.7414 15.4958C44.4859 8.96147 39.4123 3.78722 32.9235 1.40376C32.5259 1.25789 32.0854 1.46195 31.9395 1.85954C31.7936 2.25713 31.9977 2.69769 32.3953 2.84356Z" fill="#B79C10"/>
<path d="M21.9334 14.2447V20.7238C21.1201 21.7991 20.9375 23.2248 21.4534 24.4704C21.9693 25.716 23.1065 26.595 24.4419 26.7804L30.4165 32.7551L30.4211 32.762L41.2633 43.6003C41.5509 43.888 41.941 44.0497 42.3478 44.0497C42.7546 44.0497 43.1447 43.888 43.4322 43.6003C45.8334 41.1984 44.4143 38.0803 38.0111 31.6741L34.7582 28.4211H34.7528L28.7766 22.4411C28.6858 21.8187 28.4418 21.2286 28.0667 20.7238V14.2431C29.4645 13.6363 30.3683 12.2572 30.3667 10.7333V2.29998C30.371 1.68946 30.1266 1.10348 29.6897 0.67695C29.6534 0.637742 29.6139 0.601586 29.5717 0.568849C28.7005 -0.200342 27.3892 -0.187437 26.5334 0.59875C26.1095 0.207264 25.5517 -0.00700051 24.9747 -1.76404e-05C24.4153 0.0122155 23.8787 0.22435 23.4621 0.597983C22.6141 -0.182178 21.3155 -0.20099 20.4453 0.554283C19.9286 0.986592 19.6311 1.62634 19.6334 2.29998V10.7333C19.6311 12.2577 20.535 13.6377 21.9334 14.2447ZM30.9647 31.1267L26.3946 26.5573C27.3866 26.1677 28.1716 25.3827 28.5612 24.3907L33.1267 28.9647L30.9647 31.1267ZM26.5334 19.4917C25.5571 19.0583 24.443 19.0583 23.4667 19.4917V14.5667H26.5334V19.4917ZM22.7 23C22.7 21.7297 23.7298 20.7 25 20.7C26.2703 20.7 27.3 21.7297 27.3 23C27.3 24.2703 26.2703 25.3 25 25.3C23.7298 25.3 22.7 24.2703 22.7 23ZM42.3474 42.5163L32.048 32.2161L34.2161 30.048L36.9271 32.7581C44.5163 40.3474 43.1593 41.7067 42.3474 42.5163ZM21.1667 2.29998C21.1687 2.07372 21.2706 1.85991 21.445 1.71578C21.7494 1.45635 22.2032 1.47921 22.48 1.76792C22.6222 1.90829 22.7015 2.10019 22.7 2.29998V8.43332C22.7 8.85674 23.0433 9.19999 23.4667 9.19999C23.8901 9.19999 24.2334 8.85674 24.2334 8.43332V2.29998C24.2393 1.89969 24.5468 1.56863 24.9456 1.53332H25.0721C25.4653 1.57437 25.7645 1.9047 25.7667 2.29998V8.43332C25.7667 8.85674 26.1099 9.19999 26.5334 9.19999C26.9568 9.19999 27.3 8.85674 27.3 8.43332V2.29998C27.3 1.87657 27.6433 1.53332 28.0667 1.53332C28.4901 1.53332 28.8334 1.87657 28.8334 2.29998V10.7333C28.8339 11.788 28.1157 12.7073 27.0923 12.962C26.9102 13.0118 26.7221 13.0358 26.5334 13.0333H23.4667C23.2714 13.035 23.0768 13.0092 22.8886 12.9567C21.8736 12.6967 21.1645 11.7811 21.1667 10.7333V2.29998Z" fill="#B79C10"/>
<path d="M18.0303 5.96003C17.854 5.57526 17.3993 5.40608 17.0144 5.58207C16.4877 5.8228 15.981 6.09343 15.4811 6.37787C15.4589 6.3886 15.4351 6.3886 15.4136 6.40087C15.3922 6.41313 15.3745 6.4392 15.3515 6.4553C12.5043 8.12006 10.1348 10.4914 8.47221 13.34C8.44683 13.3637 8.42325 13.3894 8.40168 13.4166C8.38929 13.4458 8.37904 13.4757 8.37101 13.5063C4.98194 19.3996 4.98779 26.6518 8.38635 32.5396C8.39401 32.5534 8.39325 32.5695 8.40168 32.5833C8.41011 32.5971 8.42928 32.6178 8.44231 32.6362C10.1196 35.5059 12.5099 37.8935 15.3814 39.5677C15.3945 39.5769 15.4021 39.5907 15.4167 39.5991C15.4384 39.6094 15.4607 39.6186 15.4834 39.6267C21.1969 42.908 28.1973 43.0166 34.0099 39.9142C34.2588 39.7891 34.4202 39.5389 34.4316 39.2605C34.443 38.9822 34.3026 38.7196 34.0647 38.5746C33.8269 38.4296 33.5291 38.425 33.2869 38.5626C30.9647 39.7983 28.3949 40.4978 25.7667 40.6096V39.1C25.7667 38.6766 25.4234 38.3333 25 38.3333C24.5766 38.3333 24.2334 38.6766 24.2334 39.1V40.6142C21.6594 40.5048 19.1413 39.8286 16.8588 38.6339L17.614 37.3267C17.7531 37.0894 17.7544 36.7957 17.6174 36.5571C17.4803 36.3185 17.226 36.1717 16.9509 36.1723C16.6758 36.1729 16.4221 36.3209 16.2861 36.56L15.5325 37.8634C13.3636 36.4765 11.522 34.6349 10.1351 32.466L11.4384 31.7124C11.6776 31.5764 11.8256 31.3227 11.8262 31.0476C11.8268 30.7725 11.6799 30.5181 11.4414 30.3811C11.2028 30.2441 10.9091 30.2454 10.6718 30.3845L9.36845 31.1397C8.1731 28.8578 7.49613 26.3403 7.38585 23.7666H8.90001C9.32343 23.7666 9.66668 23.4234 9.66668 23C9.66668 22.5766 9.32343 22.2333 8.90001 22.2333H7.39505C7.50747 19.6615 8.1835 17.1458 9.37535 14.8641L10.6733 15.6139C10.9107 15.753 11.2043 15.7543 11.4429 15.6173C11.6815 15.4803 11.8283 15.2259 11.8277 14.9508C11.8271 14.6757 11.6791 14.422 11.44 14.286L10.1366 13.5332C11.5198 11.3617 13.3612 9.51904 15.5317 8.1343L16.2861 9.43764C16.4221 9.6768 16.6758 9.82477 16.9509 9.82537C17.226 9.82598 17.4803 9.67913 17.6174 9.44056C17.7544 9.202 17.7531 8.90831 17.614 8.67097L16.8634 7.36763C17.1241 7.23193 17.3832 7.09394 17.6523 6.9705C18.034 6.7943 18.2027 6.34352 18.0303 5.96003Z" fill="#B79C10"/>
<path d="M40.8585 32.338C41.0375 32.4346 41.2474 32.4561 41.4423 32.3979C41.6371 32.3397 41.8008 32.2064 41.8974 32.0275C45.016 26.2226 44.9145 19.2185 41.629 13.5064C41.621 13.4758 41.6108 13.4458 41.5984 13.4167C41.5771 13.3894 41.5537 13.3638 41.5286 13.34C39.8649 10.4911 37.494 8.1197 34.6455 6.45532C34.6225 6.43922 34.6079 6.41545 34.5834 6.40089C34.5613 6.39233 34.5388 6.38491 34.5159 6.37865C34.0191 6.09345 33.5123 5.82282 32.9826 5.58209C32.6012 5.42554 32.1644 5.59853 31.9936 5.97369C31.8229 6.34885 31.9793 6.7919 32.3478 6.97665C32.6169 7.10009 32.876 7.23809 33.1367 7.37379L32.3861 8.67712C32.247 8.91446 32.2457 9.20815 32.3827 9.44671C32.5197 9.68528 32.7741 9.83213 33.0492 9.83152C33.3243 9.83092 33.578 9.68295 33.714 9.44379L34.4684 8.14045C36.6388 9.52519 38.4802 11.3679 39.8634 13.5393L38.5601 14.2922C38.3209 14.4282 38.1729 14.6819 38.1723 14.957C38.1717 15.2321 38.3186 15.4864 38.5571 15.6235C38.7957 15.7605 39.0894 15.7592 39.3267 15.6201L40.6247 14.8703C41.8157 17.1501 42.4917 19.6636 42.605 22.2333H41.1C40.6766 22.2333 40.3334 22.5766 40.3334 23C40.3334 23.4234 40.6766 23.7667 41.1 23.7667H42.6096C42.4995 26.4009 41.7947 28.976 40.548 31.2992C40.4514 31.4781 40.4299 31.6881 40.4881 31.8829C40.5464 32.0777 40.6796 32.2414 40.8585 32.338Z" fill="#B79C10"/>
</g>
<defs>
<clipPath id="clip0_242_135">
<rect width="48" height="48" fill="white"/>
</clipPath>
</defs>
</svg>
