<svg width="296" height="112" viewBox="0 0 296 112" fill="none" xmlns="http://www.w3.org/2000/svg">
<rect width="296" height="112" fill="white"/>
<path fill-rule="evenodd" clip-rule="evenodd" d="M204.835 64.3734C211.472 63.1262 231.478 59.3667 235.816 62.0783C236.634 62.7327 235.5 62.9687 235.266 62.7863C235.241 62.7415 235.229 62.705 235.23 62.68C235.233 62.6717 235.236 62.663 235.241 62.6541C235.234 62.6603 235.231 62.6691 235.23 62.68C235.217 62.7244 235.232 62.7597 235.266 62.7863C235.563 63.3204 237.605 65.0312 238.119 62.4621C238.311 61.3107 237.735 60.3512 236.776 59.7755C232.202 56.785 212.633 60.4056 205.264 61.769C204.593 61.893 204.024 61.9984 203.576 62.0783L202.617 62.2703C199.162 63.0379 197.243 62.4621 196.284 61.5026C195.708 60.9269 195.516 60.1593 195.708 59.1998V59.0078C198.587 58.8159 201.465 57.6645 201.849 55.7454C201.849 55.1697 201.657 54.7859 201.465 54.4021C201.082 54.0183 200.698 53.8265 200.314 53.6346L200.314 53.6345C198.587 53.0588 196.86 54.0183 195.516 55.7454C195.132 56.3212 194.749 56.8969 194.365 57.6645H194.365C193.597 57.6645 192.83 57.6645 192.254 57.4726C191.486 57.2807 190.719 57.0888 190.527 56.705C190.335 56.3212 190.335 55.9374 190.719 55.3616C190.719 55.2657 190.767 55.1697 190.815 55.0738C190.863 54.9778 190.911 54.8819 190.911 54.7859C191.102 53.4426 190.527 53.4426 189.375 54.2102C188.991 54.4021 188.608 54.7859 188.224 55.1697C186.689 56.705 184.194 59.3917 183.042 61.3107C183.042 60.5175 182.991 59.3656 182.942 58.2522C182.895 57.2107 182.85 56.2028 182.85 55.5536V54.7859C182.659 54.2102 182.467 54.0183 181.891 54.0183C181.315 54.2102 180.74 54.7859 179.78 55.9374C177.861 58.2402 174.215 62.2703 171.528 62.2703C170.569 62.2703 169.801 61.8864 169.417 61.3107C169.309 61.203 169.262 61.0347 169.207 60.8399C169.165 60.6878 169.117 60.5195 169.033 60.3512C169.417 60.1593 169.801 59.9674 169.993 59.7755C171.912 58.4321 173.063 57.0888 173.639 55.9374C173.831 55.3617 173.831 54.9779 173.831 54.5941V54.594C173.639 54.0183 173.447 53.6345 173.063 53.4426C172.679 53.2507 172.104 53.0588 171.528 53.2507H171.336C169.417 54.0183 168.074 55.5535 167.498 57.2807C167.114 57.8564 167.114 58.624 167.114 59.3917L164.811 60.5431C163.468 61.3107 162.125 61.6945 160.973 61.8864C159.822 62.0783 159.054 61.8864 158.67 61.3107C158.478 61.3107 158.478 61.1188 158.478 61.1188C158.287 60.735 158.287 60.3513 158.287 59.7756V59.7755C158.287 59.1891 158.511 58.6027 158.702 58.1018C158.761 57.947 158.817 57.8004 158.862 57.6645C158.946 57.4962 158.994 57.3279 159.036 57.1758C159.091 56.981 159.138 56.8127 159.246 56.705L159.289 56.6043C159.831 55.3422 159.989 54.9729 159.054 54.7859C158.67 54.7859 158.478 54.9778 158.095 55.3616C157.711 55.5535 157.327 55.9373 156.751 56.513L156.751 56.5131C154.065 58.816 151.954 60.3512 150.418 61.3107C149.075 62.0783 147.924 62.4621 147.156 62.4621H146.772C146.388 62.2702 146.197 62.0783 146.005 61.5026C145.813 60.7351 145.813 59.9675 145.813 59.0081V59.0078V59.0077C145.813 58.432 145.813 57.6645 146.005 56.8969C148.883 53.8264 151.762 49.4126 153.873 43.6554C154.832 40.9687 155.216 38.474 155.216 37.3225C155.216 36.7468 155.024 36.1711 154.64 35.9792C154.257 35.5954 153.681 35.5954 153.105 36.1711C152.529 36.7468 151.378 38.474 150.035 41.5444C149.662 42.5387 149.208 43.533 148.779 44.4752C148.545 44.9878 148.318 45.485 148.116 45.9583C147.604 46.9818 147.263 47.8347 147.035 48.4033C146.922 48.6876 146.836 48.9008 146.772 49.0288C145.813 51.3316 145.045 53.8264 144.661 55.9374L144.277 56.3212C141.975 58.624 139.48 60.1593 137.561 60.9269C135.642 61.6945 134.298 61.8864 133.531 61.6945C132.763 60.9269 132.571 59.5836 132.955 58.2402V58.0483C135.642 57.4726 137.177 56.8969 138.136 55.7454C138.712 55.1697 139.096 54.0183 139.288 53.0588C139.48 52.2912 139.288 51.3316 138.712 50.7559C138.137 50.1802 137.369 50.1802 136.601 50.564C136.429 50.7365 136.179 50.9478 135.903 51.1804C135.566 51.4654 135.191 51.7823 134.874 52.0993C133.723 53.4426 132.571 55.1697 131.996 56.8969C131.199 57.1244 130.336 57.2844 129.405 57.457C128.765 57.5756 128.093 57.7001 127.39 57.8564C127.203 57.8876 127.011 57.9187 126.814 57.9507C125.797 58.1157 124.646 58.3025 123.36 58.624V58.0483C121.441 47.8773 92.6549 50.7559 91.5034 50.9478H90.9277C91.161 50.8701 91.3942 50.7608 91.6402 50.6456C92.0014 50.4764 92.3901 50.2944 92.8468 50.1802C96.8768 48.645 103.402 46.1502 106.472 42.3121C108.007 40.393 108.583 38.0901 108.391 36.1711C108.199 35.2116 108.007 34.252 107.432 33.6763C106.856 32.9087 106.28 32.333 105.321 32.1411C103.977 31.7572 102.25 32.1411 99.9473 33.4844C98.9878 34.0601 98.0282 34.6359 97.2606 35.4035C95.9173 36.363 94.9577 37.3225 94.382 37.8982C90.352 41.9282 86.5139 47.4935 83.4434 52.8669C82.6759 54.4019 81.9084 55.7451 81.1408 57.0883L81.1405 57.0888C80.7567 54.9778 79.9891 52.4831 79.0296 49.9883C78.262 48.0692 77.3024 46.534 75.9591 45.1906C74.232 43.4635 71.9291 42.3121 69.0505 41.9283C66.3638 41.5444 63.8691 41.7363 61.5662 41.9283C59.2633 42.3121 57.1524 42.6959 55.809 43.0797C55.5842 43.0797 55.4252 43.1455 55.2935 43.2001C55.2004 43.2387 55.1209 43.2716 55.0414 43.2716C53.89 43.6554 53.3142 43.8473 53.3142 44.423C53.3142 44.9987 53.6981 45.1907 54.2738 45.3826C54.6576 45.3826 55.0414 45.5745 55.6171 45.9583C57.7281 47.1097 60.0309 49.2207 62.1419 51.3316C66.3638 55.3616 70.3938 59.1998 73.6562 56.8969C74.2319 56.5131 74.6158 56.1293 74.8077 55.5536C76.7267 51.1397 66.7476 45.3826 62.1419 46.3421C64.8286 46.534 76.5348 51.9073 72.6967 55.7454C70.3938 57.2807 66.7476 53.8264 63.1014 50.3721L63.1014 50.3721C62.7363 50.0373 62.3759 49.7026 62.0189 49.3709C60.1243 47.611 58.3224 45.9372 56.3847 44.8068H56.1928C57.5362 44.423 59.4552 44.0392 61.5662 43.8473C63.8691 43.4635 66.1719 43.4635 68.6667 43.8473C71.3534 44.2311 73.2724 45.1906 74.8077 46.7259C76.3429 48.0692 77.4943 50.1802 78.262 52.4831C79.2215 55.1697 79.7972 57.4726 80.181 59.7755C77.8781 64.5731 76.151 69.1788 75.1915 72.2493C74.6158 74.1684 74.6158 75.5117 74.8077 76.2793C74.9996 76.855 75.3834 77.047 75.7672 77.2389C76.151 77.4308 76.7267 77.2389 77.1105 77.047C77.8782 76.6632 79.0296 75.5117 79.7972 73.9765C81.1405 71.4817 82.292 67.8355 82.1001 63.0379V63.0378C82.1001 62.0783 82.1001 61.1188 81.9082 60.1593C82.8677 58.2402 84.0191 56.1293 85.1706 54.2102C88.241 48.8368 91.8873 43.6554 95.9173 39.6254C96.4398 38.9287 97.2784 38.232 98.2898 37.3919C98.3928 37.3063 98.4975 37.2193 98.6039 37.1306C99.3716 36.5549 100.139 35.9792 101.099 35.4035C103.018 34.252 104.361 34.0601 105.321 34.252C105.704 34.252 106.088 34.6358 106.472 35.0196C106.856 35.5954 107.048 36.1711 107.048 36.7468C107.24 38.474 106.664 40.393 105.513 41.7363C102.634 45.1906 96.493 47.6854 92.6549 49.2207L92.6548 49.2207C91.8872 49.6045 91.1196 49.9883 90.5439 50.1802L89.3925 50.7559C88.8168 51.1397 88.6249 51.5235 88.6249 51.9073C88.8168 52.4831 89.2006 52.675 89.9682 52.8669C90.5439 53.0588 91.1196 53.0588 92.0792 53.0588C92.0792 53.0588 120.673 49.7964 122.208 58.8159V59.3917C121.982 59.437 121.734 59.4823 121.472 59.5301C120.625 59.6849 119.634 59.8661 118.754 60.1593C109.926 62.2702 103.018 64.765 97.8363 67.2598C89.5844 71.2898 85.3625 75.1279 83.6353 77.2389C82.8677 78.0065 82.4839 78.5822 82.4839 78.5822L82.292 78.966C82.292 79.5417 82.6758 80.1175 83.2515 80.3094C83.8272 80.5013 84.4029 80.5013 84.9787 80.5013C88.2411 80.5013 94.5739 78.3903 94.9578 78.1984C94.9784 78.1778 95.2998 78.0665 95.8599 77.8726C100.516 76.2603 121.667 68.9369 123.552 60.5431L123.552 60.5431C125.087 60.1593 126.622 59.7755 127.965 59.5836C128.879 59.4694 129.656 59.2873 130.379 59.1181C130.871 59.0029 131.337 58.8937 131.804 58.8159C131.612 60.5431 131.804 62.0783 132.955 63.2298C133.051 63.3257 133.195 63.3737 133.339 63.4217C133.483 63.4697 133.627 63.5176 133.723 63.6136C134.682 63.9974 136.409 63.8055 138.712 62.8459C140.439 62.0783 142.742 60.735 144.853 58.8159V59.1998C144.661 60.3512 144.853 61.5026 145.045 62.2703C145.429 63.2298 145.813 63.8055 146.772 64.1893C146.964 64.3812 147.156 64.3812 147.54 64.3812H147.54C148.691 64.5731 150.035 64.1893 151.762 63.0379C153.205 62.1358 154.818 60.8945 157.079 59.1545C157.223 59.0437 157.37 58.9308 157.519 58.8159C157.519 59.0079 157.471 59.1998 157.423 59.3917C157.375 59.5836 157.327 59.7755 157.327 59.9674C157.327 60.735 157.327 61.5026 157.711 62.2703C157.711 62.4621 157.711 62.4622 157.903 62.654L157.903 62.6541C158.67 63.8055 160.014 64.1893 161.549 63.9974C163.084 63.8055 164.619 63.2298 165.963 62.6541C166.539 62.4622 167.306 62.0783 167.882 61.6945L168.458 62.8459C169.033 63.8055 170.185 64.3812 171.72 64.3812C175.174 64.3812 179.012 59.9674 181.123 57.4726C181.197 57.3993 181.27 57.354 181.333 57.3153C181.434 57.2527 181.507 57.2074 181.507 57.0888C181.528 57.3797 181.549 57.6931 181.57 58.0212C181.75 60.7233 181.995 64.4227 182.85 64.765C183.426 64.9569 184.002 64.765 184.194 63.8055C184.578 62.2702 187.264 59.1998 189.183 57.4726C189.279 57.5686 189.327 57.7125 189.375 57.8564C189.423 58.0003 189.471 58.1443 189.567 58.2402C189.951 58.8159 190.911 59.3917 192.062 59.5836C192.638 59.7755 193.405 59.7755 194.173 59.7755C193.981 61.1188 194.173 62.4621 195.132 63.4217C196.284 64.765 198.779 65.5326 202.809 64.765C202.888 64.765 203.001 64.7321 203.132 64.6935C203.319 64.639 203.543 64.5731 203.768 64.5731C204.069 64.5175 204.427 64.4502 204.835 64.3734ZM239.463 64.3812C239.463 64.3812 239.463 60.735 241.574 61.8864C243.876 63.0378 239.463 64.3812 239.463 64.3812ZM163.852 48.453C163.852 49.4126 163.66 50.1802 163.276 50.3721C162.7 50.9478 161.549 50.9478 160.973 49.9883C160.014 48.6449 160.781 47.6854 162.125 47.3016C162.317 47.3016 162.508 47.1097 162.892 46.726L162.892 46.7259L162.892 46.7258C163.276 46.342 163.852 45.7663 164.619 44.8068L164.62 44.8068C165.387 44.0392 166.155 43.2716 166.922 42.8878C167.69 42.504 168.266 42.3121 169.033 42.1202C169.317 42.1202 169.461 42.1202 169.465 42.1432C169.469 42.1669 169.325 42.2148 169.033 42.3121C168.458 42.504 167.69 42.8878 166.922 43.4635C166.155 43.8473 165.387 44.6149 164.811 45.5744C164.236 46.534 163.852 47.4935 163.852 48.453ZM196.284 58.2402C196.476 57.8564 196.668 57.4726 196.86 57.2807C197.819 56.1293 198.971 55.3616 199.93 55.7454L200.314 56.1293V56.3212C200.122 57.2807 198.395 57.8564 196.284 58.2402ZM169.154 58.6842C169.192 58.5911 169.225 58.5116 169.225 58.4321C169.801 57.0888 170.76 55.9374 172.104 55.5536H172.488C172.488 55.5536 172.296 55.7455 172.296 55.9374C171.912 56.705 170.952 57.8564 169.225 59.0078L169.033 59.1998C169.033 58.9749 169.099 58.8159 169.154 58.6842ZM147.855 52.4215C148.147 51.6401 148.455 50.8142 148.691 49.9883C148.883 49.6045 149.267 48.645 149.843 46.9178C150.011 46.5262 150.178 46.1183 150.351 45.6989C150.77 44.6794 151.218 43.5917 151.762 42.504C152.913 40.2011 153.681 38.8578 154.257 38.0901C154.257 39.2416 153.681 41.1606 152.913 43.4635C151.378 47.6854 149.459 51.1397 147.348 53.8264C147.496 53.3829 147.672 52.9109 147.855 52.4215ZM134.106 56.8969C134.682 55.7455 135.45 54.4021 136.217 53.6345C136.582 53.2695 136.947 52.9817 137.215 52.7709C137.369 52.6493 137.491 52.5533 137.561 52.4831C137.753 52.2912 137.945 52.2911 137.945 52.2911C138.136 52.2911 138.136 52.8669 138.136 53.2507C137.945 54.0183 137.753 54.7859 137.369 55.1697C136.793 55.9373 135.834 56.5131 134.106 56.8969ZM119.138 61.6945L122.016 61.1188C119.138 69.1788 94.5739 76.8551 94.7658 76.6632C94.7658 76.6632 88.433 78.966 85.1706 78.966H84.211L84.9787 78.1984C86.5139 76.2793 90.7358 72.4412 98.6039 68.6031C103.785 66.1083 110.502 63.6136 119.138 61.6945ZM76.9186 73.0169C77.6863 70.5222 79.0296 66.876 80.7567 63.0379V63.4217C80.9486 67.8355 79.9891 71.2898 78.6458 73.5927C77.8782 74.7441 77.1105 75.7036 76.5348 76.0874C76.3429 75.5117 76.5348 74.5522 76.9186 73.0169ZM121.249 76.4713L120.673 76.2793H120.865V71.2898C120.865 71.0979 121.057 71.0979 121.057 71.0979H123.168C123.935 71.0979 124.703 71.6736 124.703 72.6331C124.703 73.4008 124.127 73.9765 123.551 74.1684L124.511 76.0874C124.511 76.0874 124.511 76.2793 124.319 76.2793H123.743H123.551L122.592 74.3603H121.44V76.2793C121.44 76.4712 121.249 76.4713 121.249 76.4713ZM121.44 71.8655V73.5927V73.7846H122.784C123.359 73.7846 123.743 73.4008 123.743 72.8251C123.743 72.2493 123.168 71.8655 122.784 71.8655H121.44ZM131.803 76.4713L128.733 76.2793V71.2898C128.733 71.0979 128.925 71.0979 128.925 71.0979H131.803C131.995 71.0979 131.995 71.2898 131.995 71.2898V71.6736C131.995 71.8655 131.803 71.8655 131.803 71.8655H129.5V73.4008H131.42C131.611 73.4008 131.611 73.5927 131.611 73.5927V73.9765C131.611 74.1684 131.42 74.1684 131.42 74.1684H129.5V75.7036H131.803C131.995 75.7036 131.995 75.8955 131.995 75.8955V76.2793C131.995 76.4712 131.803 76.4713 131.803 76.4713ZM137.752 76.4713C136.985 76.4713 136.409 76.0874 136.217 75.8955C136.132 75.8107 136.085 75.7633 136.092 75.7535C136.1 75.7412 136.195 75.7885 136.409 75.8955C136.409 75.7996 136.457 75.7516 136.505 75.7036C136.553 75.6557 136.601 75.6077 136.601 75.5117H136.793C136.793 75.7036 137.369 76.0874 137.944 76.0874C138.328 76.0874 138.712 75.7036 138.712 75.3198C138.712 74.936 138.328 74.7441 137.561 74.3603L137.56 74.3603C136.793 74.1684 136.217 73.5927 136.217 72.8251C136.217 72.2493 136.601 71.4817 137.752 71.4817C138.52 71.4817 139.096 71.8655 139.096 71.8655V72.0574L138.904 72.2493H138.712C138.712 72.2493 138.136 71.8655 137.752 71.8655C137.177 71.8655 136.985 72.2493 136.985 72.4412C136.985 72.825 137.369 73.2089 137.944 73.4008C138.712 73.7846 139.48 74.1684 139.48 75.1279C139.48 75.8955 138.712 76.4713 137.752 76.4713ZM144.853 76.4713L144.277 76.2793H144.085V71.8655H142.934C142.742 71.8655 142.742 71.6736 142.742 71.6736V71.2898C142.742 71.0979 142.934 71.0979 142.934 71.0979H146.196C146.388 71.0979 146.388 71.2898 146.388 71.2898V71.6736C146.388 71.8655 146.196 71.8655 146.196 71.8655H145.045V76.2793C145.045 76.4712 144.853 76.4713 144.853 76.4713ZM150.034 76.2793H149.651C149.459 76.2793 149.459 76.2794 149.267 76.0874L151.57 71.0979H151.761H151.953L154.256 76.0874C154.256 76.0874 154.256 76.2793 154.064 76.2793H153.681C153.489 76.2793 153.489 76.0874 153.489 76.0874L153.105 75.1279H150.61C150.61 75.3198 150.418 75.7036 150.226 76.0874C150.226 76.2794 150.034 76.2793 150.034 76.2793ZM151.953 72.4412L150.994 74.5522H152.913L151.953 72.4412ZM160.205 76.2793C159.054 76.2793 158.286 75.5117 158.286 74.3603H158.094V71.2898C158.094 71.0979 158.286 71.0979 158.286 71.0979H158.862C159.054 71.0979 159.054 71.2898 159.054 71.2898V74.3603C159.054 75.1279 159.438 75.7036 160.205 75.7036C160.973 75.7036 161.357 75.1279 161.357 74.3603V71.2898C161.357 71.0979 161.549 71.0979 161.549 71.0979H162.124C162.316 71.0979 162.316 71.2898 162.316 71.2898V74.3603C162.316 75.3198 161.357 76.2793 160.205 76.2793ZM167.498 76.4713L166.922 76.2793H167.306V71.2898C167.306 71.0979 167.498 71.0979 167.498 71.0979H169.417C170.184 71.0979 170.952 71.6736 170.952 72.6331C170.952 73.4008 170.376 73.9765 169.801 74.1684L170.76 76.0874C170.76 76.0874 170.76 76.2793 170.568 76.2793H169.993H169.801L168.841 74.3603H167.69V76.2793C167.69 76.4712 167.498 76.4713 167.498 76.4713ZM167.69 71.8655V73.5927V73.7846H169.033C169.609 73.7846 169.993 73.4008 169.993 72.8251C169.993 72.2493 169.609 71.8655 169.033 71.8655H167.69ZM174.79 76.2793H174.406C174.406 76.2793 174.214 76.2794 174.023 76.0874L176.325 71.0979H176.517H176.709L179.012 76.0874C179.012 76.0874 179.012 76.2793 178.82 76.2793H178.436C178.244 76.2793 178.244 76.0874 178.244 76.0874L177.861 75.1279H175.366C175.366 75.3198 175.174 75.7036 174.982 76.0874C174.982 76.2794 174.79 76.2793 174.79 76.2793ZM176.709 72.4412L175.75 74.5522H177.669L176.709 72.4412ZM183.81 76.4713L183.234 76.2793V71.2898C183.234 71.0979 183.426 71.0979 183.426 71.0979H183.618L186.88 74.7441V71.2898C186.88 71.0979 187.072 71.0979 187.072 71.0979H187.456C187.648 71.0979 187.648 71.2898 187.648 71.2898V76.2793C187.648 76.4712 187.456 76.4713 187.456 76.4713H187.264L184.002 72.6331V76.2793C184.002 76.4712 183.81 76.4713 183.81 76.4713ZM193.405 76.4713L192.829 76.2793H192.637V71.8655H191.486C191.294 71.8655 191.294 71.6736 191.294 71.6736V71.2898C191.294 71.0979 191.486 71.0979 191.486 71.0979H194.748C194.94 71.0979 194.94 71.2898 194.94 71.2898V71.6736C194.94 71.8655 194.748 71.8655 194.748 71.8655H193.597V76.2793C193.597 76.4712 193.405 76.4713 193.405 76.4713ZM202.425 76.2793H202.233L199.738 71.2898C199.738 71.2898 199.738 71.0979 199.93 71.0979H200.506H200.697L202.425 74.7441L203.96 71.0979H204.152H204.727C204.919 71.0979 204.919 71.2898 204.919 71.2898L202.616 76.2793H202.425ZM211.828 76.4713L208.757 76.2793V71.2898C208.757 71.0979 208.949 71.0979 208.949 71.0979H211.828C212.02 71.0979 212.02 71.2898 212.02 71.2898V71.6736C212.02 71.8655 211.828 71.8655 211.828 71.8655H209.525V73.4008H211.444C211.636 73.4008 211.636 73.5927 211.636 73.5927V73.9765C211.636 74.1684 211.444 74.1684 211.444 74.1684H209.525V75.7036H211.828C212.02 75.7036 212.02 75.8955 212.02 75.8955V76.2793C212.02 76.4712 211.828 76.4713 211.828 76.4713ZM218.545 76.4713C217.009 76.4713 215.858 75.3198 215.858 73.7846C215.858 72.2493 217.201 71.0979 218.737 70.906C219.312 70.906 219.888 71.2898 220.464 71.6736V71.8655L220.08 72.2493H219.888C219.504 71.8655 218.928 71.6736 218.545 71.6736C217.393 71.6736 216.626 72.6331 216.626 73.5927C216.626 74.5522 217.585 75.5117 218.545 75.5117C219.12 75.5117 219.696 75.3198 219.696 75.3198V74.5522H218.928C218.737 74.5522 218.737 74.3603 218.737 74.3603V73.9765C218.737 73.7846 218.928 73.7846 218.928 73.7846H220.272C220.464 73.7846 220.464 73.9765 220.464 73.9765V75.7036V75.8955C220.464 75.8955 219.696 76.4713 218.545 76.4713ZM227.18 76.4713C225.645 76.4713 224.494 75.3198 224.494 73.7846C224.494 72.2493 225.645 71.0979 227.372 70.906C227.948 70.906 228.524 71.2898 229.099 71.6736V71.8655L228.716 72.2493H228.524C228.14 71.8655 227.564 71.6736 227.18 71.6736C226.029 71.6736 225.261 72.6331 225.261 73.5927C225.261 74.5522 226.029 75.5117 227.18 75.5117C227.756 75.5117 228.332 75.3198 228.332 75.3198V74.5522H227.564C227.372 74.5522 227.372 74.3603 227.372 74.3603V73.9765C227.372 73.7846 227.564 73.7846 227.564 73.7846H228.908C229.099 73.7846 229.099 73.9765 229.099 73.9765V75.7036V75.8955C229.099 75.8955 228.332 76.4713 227.18 76.4713ZM234.089 76.4713L233.513 76.2793H233.321V71.2898C233.321 71.0979 233.513 71.0979 233.513 71.0979H234.089C234.281 71.0979 234.281 71.2898 234.281 71.2898V76.2793C234.281 76.4712 234.089 76.4713 234.089 76.4713ZM241.957 76.4713L238.887 76.2793V71.2898C238.887 71.0979 239.079 71.0979 239.079 71.0979H241.957C242.149 71.0979 242.149 71.2898 242.149 71.2898V71.6736C242.149 71.8655 241.957 71.8655 241.957 71.8655H239.654V73.4008H241.573C241.765 73.4008 241.765 73.5927 241.765 73.5927V73.9765C241.765 74.1684 241.573 74.1684 241.573 74.1684H239.654V75.7036H241.957C242.149 75.7036 242.149 75.8955 242.149 75.8955V76.2793C242.149 76.4712 241.957 76.4713 241.957 76.4713Z" fill="#313030"/>
</svg>
