<svg width="48" height="48" viewBox="0 0 48 48" fill="none" xmlns="http://www.w3.org/2000/svg">
<path d="M18.7246 18.167C15.5724 18.167 12.5824 18.7559 10.0484 19.8551C13.4897 24.1903 13.4827 30.3274 10.0315 34.6547C12.5685 35.7558 15.5649 36.3429 18.7246 36.3429C24.8779 36.3429 30.0136 32.2669 33.3937 27.2549C30.0099 22.2373 24.8817 18.167 18.7246 18.167Z" fill="#FFE145"/>
<path d="M47.2497 19.5175C43.0716 19.5175 39.2779 22.5974 36.7578 25.8847C33.8832 21.3379 29.449 17.1944 24.1838 15.4744V8.09338L11.6952 15.5185C5.82131 17.1194 0 21.2582 0 27.2549C0 34.6744 8.95753 39.9068 18.7245 39.9068C26.2808 39.9068 32.7699 34.9361 36.7578 28.6261C39.2806 31.9087 43.0715 34.9934 47.2497 34.9934H48V19.5184L47.2497 19.5175ZM22.6823 10.7316V15.0608C20.7944 14.6219 18.7865 14.4586 15.9372 14.7419L22.6823 10.7316ZM1.50056 27.2549C1.50056 23.4397 4.43419 20.4451 7.81238 18.6425C13.2333 23.0974 13.2333 31.4125 7.79175 35.8561C4.407 34.0441 1.50056 31.0504 1.50056 27.2549ZM18.7245 38.4061C15.3201 38.4061 12.0769 37.7721 9.26803 36.5651C14.7377 31.5812 14.7452 22.9304 9.28866 17.9353C12.092 16.7348 15.3285 16.1036 18.7245 16.1036C26.0596 16.1036 32.3002 21.2806 35.8208 27.2313L35.8058 27.2548L35.8208 27.2782C32.2955 33.247 26.054 38.4061 18.7245 38.4061ZM46.4994 33.4532C42.0793 32.9937 38.596 28.6204 37.6094 27.2549C38.5942 25.8883 42.0699 21.516 46.4994 21.0574V33.4532Z" fill="#B79C10"/>
</svg>
