<svg width="296" height="112" viewBox="0 0 296 112" fill="none" xmlns="http://www.w3.org/2000/svg">
<path d="M76.841 49.189L73 37.5783L75.5607 36.6107C76.2009 36.4494 77.0011 36.4494 77.6412 36.6107C78.2814 36.772 78.7615 37.0945 79.0816 37.7395C79.4017 38.062 79.5618 38.3845 79.7218 38.8683C80.0419 39.6746 80.0419 40.3197 79.7218 40.9647C79.5618 41.126 79.4017 41.4485 79.2417 41.6097C79.7218 41.6097 80.0419 41.771 80.522 42.0935C80.8421 42.416 81.0021 42.7386 81.3222 43.0611C81.4823 43.2223 81.4823 43.5449 81.6423 43.8674C81.9624 44.6737 81.9624 45.3187 81.8024 45.8025C81.8024 46.2863 81.4823 46.7701 81.1622 47.0926C81.0021 47.5764 80.522 47.8989 80.0419 48.0601L76.841 49.189ZM76.5209 41.6097L77.3212 41.2872C77.8013 41.126 78.1214 40.6422 78.1214 40.1584C78.1214 39.9971 78.1214 39.6746 77.9613 39.3521C77.6412 39.0296 77.4812 38.7071 77.1611 38.5458C76.841 38.3845 76.5209 38.3845 76.2009 38.5458L75.4006 38.7071L76.5209 41.6097ZM78.1214 46.7701L78.9216 46.4475C79.5618 46.2863 79.8818 45.8025 79.8818 45.1575C79.8818 44.9962 79.8818 44.6737 79.7218 44.3512C79.5618 43.7061 79.2417 43.2223 78.9216 43.0611C78.6015 42.8998 78.2814 42.8998 77.8013 43.0611L77.0011 43.3836L78.1214 46.7701Z" fill="#313030"/>
<path d="M91.8851 44.6737C91.0849 44.835 90.4447 44.835 89.6445 44.3512C89.0043 44.0287 88.5242 43.3836 88.3641 42.5773L85.9635 33.5468L87.724 33.063L90.1246 42.0936C90.1246 42.4161 90.2846 42.5773 90.6047 42.7386C90.9248 42.8999 91.0849 42.8999 91.4049 42.8999C91.725 42.8999 91.8851 42.7386 92.0451 42.4161C92.2052 42.0936 92.2052 41.9323 92.2052 41.6098L89.8045 32.5792L91.565 32.0955L93.9656 41.2873C94.1257 42.0936 94.1257 42.7386 93.6455 43.5449C93.1654 44.0287 92.5252 44.5125 91.8851 44.6737Z" fill="#313030"/>
<path d="M101.488 29.8378C102.448 29.6765 103.248 29.8378 103.888 30.1603C104.368 30.4828 104.689 31.1279 104.849 32.0954L105.169 33.8693C105.329 34.6756 105.169 35.4819 104.688 36.2882L107.089 41.2872L105.169 41.6098L103.248 37.2557H103.088L102.128 37.417L103.088 41.9323L101.328 42.2548L98.927 30.3216L101.488 29.8378ZM103.248 32.418C103.088 31.7729 102.768 31.4504 101.968 31.6117L100.847 31.7729L101.648 35.6432L102.768 35.4819C103.088 35.4819 103.248 35.3206 103.408 34.9981C103.568 34.6756 103.568 34.5143 103.568 34.1918L103.248 32.418Z" fill="#313030"/>
<path d="M116.212 39.8359C115.411 39.9971 114.771 39.8359 114.131 39.3521C113.491 38.8683 113.171 38.2233 113.011 37.417L112.051 30.8053C111.89 29.999 112.051 29.354 112.531 28.7089C113.011 28.0639 113.651 27.7414 114.451 27.5801C115.251 27.4189 115.892 27.5801 116.532 28.0639C117.172 28.5477 117.492 29.1927 117.652 29.999L117.812 31.2891L115.892 31.6116L115.731 30.1603C115.731 29.8378 115.571 29.6765 115.251 29.5152C115.091 29.354 114.771 29.1927 114.451 29.354C114.131 29.354 113.971 29.5152 113.811 29.8378C113.651 29.999 113.651 30.3215 113.651 30.6441L114.611 37.0945C114.611 37.417 114.771 37.5782 115.091 37.7395C115.251 37.9008 115.571 38.062 115.892 37.9008C116.212 37.9008 116.372 37.7395 116.532 37.417C116.692 37.2557 116.852 36.9332 116.692 36.6107L116.372 34.1918L115.411 34.353L115.091 32.5792L117.972 32.0954L118.612 36.2882C118.772 37.0945 118.612 37.7395 118.132 38.3845C117.652 39.3521 117.012 39.6746 116.212 39.8359Z" fill="#313030"/>
<path d="M125.494 38.5458L124.534 26.2901L129.655 25.8063L129.815 27.7414L126.454 28.0639L126.774 31.2891L129.175 31.1278L129.335 32.9017L126.934 33.2242L127.255 36.4494L130.615 36.1269L130.775 38.062L125.494 38.5458Z" fill="#313030"/>
<path d="M139.418 25.3226C140.378 25.3226 141.178 25.4838 141.658 26.1289C142.139 26.6126 142.459 27.2577 142.459 28.2252V29.9991C142.459 30.8054 142.139 31.6117 141.498 32.2567L143.099 37.5783H141.178L139.898 33.063H139.738H138.618L138.778 37.5783H137.017L136.537 25.3226H139.418ZM140.698 28.2252C140.698 27.5802 140.378 27.2577 139.578 27.2577H138.458L138.618 31.1279H139.738C140.058 31.1279 140.218 30.9667 140.538 30.8054C140.698 30.6441 140.858 30.3216 140.858 29.9991L140.698 28.2252Z" fill="#313030"/>
<path d="M168.066 35.4819C168.066 36.2882 167.745 36.9332 167.105 37.417C166.465 37.9008 165.825 38.2233 165.025 38.062L162.144 37.9008L163.104 25.8063L165.985 25.9675C166.785 25.9675 167.425 26.2901 167.905 26.9351C168.386 27.5801 168.706 28.2252 168.546 29.0315L168.066 35.4819ZM164.064 36.1269L165.185 36.2882C165.505 36.2882 165.665 36.2882 165.985 35.9656C166.145 35.8044 166.305 35.4819 166.305 35.3206L166.785 29.0315C166.785 28.7089 166.785 28.5477 166.465 28.2252C166.305 28.0639 165.985 27.9027 165.825 27.9027L164.705 27.7414L164.064 36.1269Z" fill="#313030"/>
<path d="M175.748 25L177.508 25.1613L176.868 27.9027L175.748 27.7414V25Z" fill="#313030"/>
<path d="M186.951 40.9647L181.989 40.1584L184.07 28.064L185.83 28.3865L184.07 38.5458L187.271 39.1909L186.951 40.9647Z" fill="#313030"/>
<path d="M195.642 30.1758L193.099 42.1606L194.821 42.5316L197.364 30.5467L195.642 30.1758Z" fill="#313030"/>
<path d="M204.075 44.9962C203.275 44.835 202.635 44.3512 202.315 43.7062C201.995 43.0611 201.835 42.2548 201.995 41.4485L203.755 34.9981C203.915 34.1918 204.395 33.5468 205.035 33.2243C205.676 32.9018 206.476 32.7405 207.276 32.9018C208.076 33.063 208.716 33.5468 209.037 34.1918C209.357 34.8369 209.517 35.6432 209.357 36.4495L209.037 37.7396L207.276 37.2558L207.596 35.8044C207.596 35.4819 207.596 35.3207 207.436 34.9981C207.276 34.8369 207.116 34.6756 206.796 34.6756C206.476 34.6756 206.316 34.6756 205.996 34.8369C205.676 34.9981 205.516 35.1594 205.516 35.4819L203.755 41.9323C203.755 42.2548 203.755 42.4161 203.915 42.7386C204.075 43.0611 204.235 43.2224 204.555 43.2224C204.875 43.2224 205.035 43.2224 205.356 43.0611C205.676 42.8999 205.836 42.7386 205.836 42.4161L206.316 40.8035L208.076 41.2873L207.596 42.8999C207.436 43.7062 206.956 44.3512 206.316 44.6737C205.676 44.9962 204.875 45.1575 204.075 44.9962Z" fill="#313030"/>
<path d="M213.198 47.415L217.039 35.9656L222 37.5782L221.36 39.352L218.159 38.2232L217.199 41.4484L219.439 42.2547L218.799 44.0286L216.559 43.2223L215.438 46.2862L218.639 47.415L217.999 49.1889L213.198 47.415Z" fill="#313030"/>
<path d="M95.8861 79.1833C95.8861 79.6671 95.566 79.8284 95.246 79.8284C94.9259 79.8284 94.6058 79.5058 94.6058 79.1833C94.6058 78.8608 94.9259 78.5383 95.246 78.5383C95.566 78.377 95.8861 78.6995 95.8861 79.1833Z" fill="#313030"/>
<path d="M100.047 79.9896L99.7272 80.6346H98.7669L100.367 76.7644H101.328L102.928 80.6346H101.968L101.648 79.9896H100.047ZM100.847 77.732L100.207 79.1833H101.328L100.847 77.732Z" fill="#313030"/>
<path d="M109.33 80.6346V78.2157L108.37 80.3121H107.729L106.769 78.2157V80.6346H105.969V76.7644H106.929L108.049 79.022L109.01 76.7644H110.13V80.6346H109.33Z" fill="#313030"/>
<path d="M114.451 77.5707V78.377H116.372V79.022H114.451V79.8283H116.532V80.6346H113.491V76.7644H116.532V77.5707H114.451Z" fill="#313030"/>
<path d="M121.493 79.5058H120.693V80.6346H119.733V76.7644H121.493C122.453 76.7644 123.093 77.2482 123.093 78.0545C123.093 78.6995 122.773 79.022 122.453 79.3446L123.253 80.6346H122.133L121.493 79.5058ZM121.493 78.8608C121.973 78.8608 122.133 78.6995 122.133 78.2157C122.133 77.8932 121.813 77.5707 121.493 77.5707H120.693V78.8608H121.493Z" fill="#313030"/>
<path d="M127.415 76.7644H126.454V80.6346H127.415V76.7644Z" fill="#313030"/>
<path d="M133.976 77.4094L133.336 78.0545C133.016 77.732 132.696 77.5707 132.376 77.5707C131.736 77.5707 131.256 78.0545 131.256 78.6995C131.256 79.3446 131.736 79.8283 132.376 79.8283C132.696 79.8283 133.016 79.6671 133.336 79.3446L133.976 79.9896C133.496 80.4734 133.016 80.6346 132.376 80.6346C131.256 80.6346 130.295 79.8283 130.295 78.6995C130.295 77.5707 131.096 76.7644 132.376 76.7644C133.016 76.7644 133.656 77.0869 133.976 77.4094Z" fill="#313030"/>
<path d="M137.977 79.9896L137.657 80.6346H136.697L138.298 76.7644H139.258L140.858 80.6346H139.898L139.578 79.9896H137.977ZM138.778 77.732L138.298 79.1833H139.418L138.778 77.732Z" fill="#313030"/>
<path d="M146.62 80.6346L144.859 78.2157V80.6346H143.899V76.7644H144.699L146.46 79.1833V76.7644H147.42V80.6346H146.62Z" fill="#313030"/>
<path d="M155.582 77.5707V78.377H157.343V79.1833H155.582V80.6346H154.622V76.7644H157.503V77.5707H155.582Z" fill="#313030"/>
<path d="M164.545 78.6995C164.545 79.8283 163.584 80.6346 162.464 80.6346C161.344 80.6346 160.383 79.8283 160.383 78.6995C160.383 77.5707 161.344 76.7644 162.464 76.7644C163.584 76.7644 164.545 77.5707 164.545 78.6995ZM161.344 78.6995C161.344 79.3446 161.824 79.8283 162.464 79.8283C163.104 79.8283 163.584 79.3446 163.584 78.6995C163.584 78.0545 163.104 77.5707 162.464 77.5707C161.824 77.5707 161.344 78.0545 161.344 78.6995Z" fill="#313030"/>
<path d="M171.426 78.6995C171.426 79.8283 170.466 80.6346 169.346 80.6346C168.226 80.6346 167.265 79.8283 167.265 78.6995C167.265 77.5707 168.226 76.7644 169.346 76.7644C170.466 76.7644 171.426 77.5707 171.426 78.6995ZM168.226 78.6995C168.226 79.3446 168.706 79.8283 169.346 79.8283C169.986 79.8283 170.466 79.3446 170.466 78.6995C170.466 78.0545 169.986 77.5707 169.346 77.5707C168.706 77.5707 168.226 78.0545 168.226 78.6995Z" fill="#313030"/>
<path d="M176.228 76.7644C177.508 76.7644 178.308 77.5707 178.308 78.6995C178.308 79.8283 177.508 80.6346 176.228 80.6346H174.627V76.7644H176.228ZM175.588 79.8283H176.228C176.868 79.8283 177.188 79.3446 177.188 78.6995C177.188 78.0545 176.708 77.5707 176.068 77.5707H175.427V79.8283H175.588Z" fill="#313030"/>
<path d="M182.309 76.7644H181.349V80.6346H182.309V76.7644Z" fill="#313030"/>
<path d="M188.391 80.6346L186.631 78.2157V80.6346H185.67V76.7644H186.631L188.391 79.1833V76.7644H189.191V80.6346H188.391Z" fill="#313030"/>
<path d="M195.913 78.6995V80.1509C195.433 80.4734 194.793 80.6346 194.313 80.6346C193.192 80.6346 192.232 79.8283 192.232 78.6995C192.232 77.5707 193.192 76.7644 194.313 76.7644C194.953 76.7644 195.433 76.9257 195.913 77.4094L195.433 78.0545C195.113 77.732 194.793 77.5707 194.473 77.5707C193.832 77.5707 193.352 78.0545 193.352 78.6995C193.352 79.3446 193.832 79.8283 194.473 79.8283C194.633 79.8283 194.953 79.8283 195.113 79.6671V78.6995H195.913Z" fill="#313030"/>
<path d="M200.394 79.1833C200.394 79.6671 200.074 79.8284 199.754 79.8284C199.434 79.8284 199.114 79.5058 199.114 79.1833C199.114 78.8608 199.434 78.5383 199.754 78.5383C200.234 78.377 200.394 78.6995 200.394 79.1833Z" fill="#313030"/>
<path d="M108.049 61.4447V57.5745H109.81V58.0582H108.69V59.1871H109.49V59.8321H108.69V60.7997H109.81V61.4447H108.049Z" fill="#313030"/>
<path d="M114.291 60.4771C114.291 60.7997 114.291 60.9609 114.131 61.1222C113.971 61.2834 113.971 61.2834 113.651 61.4447C113.491 61.4447 113.491 61.4447 113.331 61.4447C113.171 61.4447 112.851 61.4447 112.691 61.2834C112.531 61.1222 112.531 61.1222 112.371 60.9609C112.371 60.7997 112.211 60.6384 112.211 60.4771H112.691C112.691 60.6384 112.851 60.7997 112.851 60.9609L113.011 61.1222C113.171 61.1222 113.171 61.1222 113.331 60.9609C113.331 60.9609 113.331 60.7997 113.331 60.6384C113.331 60.4771 113.331 60.3159 113.171 60.1546C113.011 59.9934 112.851 59.8321 112.691 59.6708C112.531 59.5096 112.371 59.3483 112.211 59.1871C112.05 59.0258 112.05 58.8645 112.05 58.7033C112.05 58.3808 112.211 58.0582 112.371 57.897C112.531 57.7357 112.691 57.7357 112.851 57.7357C113.011 57.7357 113.171 57.7357 113.331 57.897C113.491 57.897 113.491 58.0582 113.651 58.2195C113.651 58.3808 113.811 58.542 113.811 58.7033L113.331 58.8645C113.331 58.7033 113.331 58.542 113.171 58.542L113.011 58.3808C112.851 58.3808 112.851 58.3808 112.691 58.542C112.691 58.542 112.691 58.7033 112.691 58.8645C112.691 59.0258 112.691 59.1871 112.851 59.3483C112.851 59.3483 113.011 59.5096 113.171 59.6708C113.331 59.8321 113.331 59.8321 113.491 59.8321C113.651 59.9934 113.811 60.1546 113.811 60.3159C113.811 60.3159 113.811 60.4771 113.971 60.4771C114.131 60.3159 114.291 60.3159 114.291 60.4771Z" fill="#313030"/>
<path d="M117.332 58.0582H116.692V57.5745H118.612V58.0582H117.972V61.4447H117.332V58.0582Z" fill="#313030"/>
<path d="M121.653 60.7997H121.013V61.4447H121.653V60.7997Z" fill="#313030"/>
<path d="M173.027 58.7033C173.027 58.3808 173.187 58.0582 173.347 57.897C173.507 57.7357 173.667 57.5745 173.987 57.5745C174.307 57.5745 174.467 57.7357 174.627 57.897C174.787 58.0582 174.947 58.3808 174.947 58.542C174.947 58.8645 174.947 59.0258 174.787 59.3483C174.787 59.5096 174.627 59.6708 174.307 59.9934C174.307 60.1546 174.147 60.1546 173.987 60.4771L173.827 60.6384C173.827 60.7997 173.667 60.7997 173.667 60.9609H174.787V61.606H172.867V61.1222C172.867 61.1222 172.867 60.9609 173.027 60.9609L173.187 60.7997L173.347 60.6384C173.507 60.4771 173.507 60.3159 173.827 59.9934C173.987 59.6708 174.147 59.5096 174.307 59.3483C174.307 59.1871 174.467 59.0258 174.467 58.8645C174.467 58.7033 174.467 58.7033 174.307 58.542C174.307 58.3808 174.147 58.3808 173.987 58.3808C173.827 58.3808 173.667 58.542 173.667 58.7033V58.8645V59.0258L173.027 58.7033Z" fill="#313030"/>
<path d="M179.269 60.6384C179.269 60.9609 179.108 61.1222 178.948 61.2834C178.788 61.4447 178.628 61.606 178.308 61.606C177.988 61.606 177.828 61.4447 177.668 61.2834C177.508 61.1222 177.348 60.9609 177.348 60.6384V58.542C177.348 58.2195 177.508 58.0582 177.668 57.897C177.828 57.7357 177.988 57.5745 178.308 57.5745C178.628 57.5745 178.788 57.7357 178.948 57.897C179.108 58.0582 179.269 58.3808 179.269 58.542V60.6384ZM178.628 58.3808C178.628 58.2195 178.628 58.2195 178.468 58.2195L178.308 58.0582C178.148 58.0582 178.148 58.0582 178.148 58.2195L177.988 58.3808V60.4771C177.988 60.6384 177.988 60.6384 178.148 60.6384L178.308 60.7997C178.468 60.7997 178.468 60.7997 178.468 60.6384L178.628 60.4771V58.3808Z" fill="#313030"/>
<path d="M182.149 61.4447V58.3808H181.669V57.897C181.829 57.897 181.989 57.897 182.149 57.7357C182.309 57.5745 182.309 57.5745 182.469 57.4132H182.95V61.2834H182.149V61.4447Z" fill="#313030"/>
<path d="M186.31 58.542C186.31 58.3808 186.31 58.2195 186.31 58.2195L186.15 58.0582C185.99 58.0582 185.99 58.0582 185.99 58.2195C185.99 58.2195 185.99 58.3808 185.99 58.542V59.3483C186.15 59.1871 186.31 59.1871 186.47 59.1871C186.791 59.1871 186.951 59.3483 187.111 59.5096C187.271 59.6708 187.271 59.8321 187.271 60.1546V60.7997C187.271 61.1222 187.111 61.2834 186.951 61.4447C186.791 61.6059 186.631 61.7672 186.31 61.7672C185.99 61.7672 185.83 61.6059 185.67 61.4447C185.51 61.2834 185.35 61.1222 185.35 60.7997V58.7033C185.35 58.542 185.35 58.3808 185.51 58.2195C185.67 58.0582 185.67 57.897 185.83 57.897C185.99 57.897 185.99 57.897 186.15 57.897C186.47 57.897 186.631 58.0582 186.791 58.2195C186.951 58.3808 187.111 58.542 187.111 58.8645V59.0258H186.31V58.542ZM185.67 60.4771C185.67 60.6384 185.67 60.6384 185.67 60.6384L185.83 60.7997C185.99 60.7997 185.99 60.7997 185.99 60.6384V60.4771V59.8321C185.99 59.6708 185.99 59.6708 185.83 59.5096H185.67C185.51 59.5096 185.51 59.5096 185.51 59.6708V59.8321V60.4771H185.67Z" fill="#313030"/>
<path d="M163.584 56.1231C163.104 56.1231 162.944 55.9619 162.624 55.6393C162.144 55.3168 161.504 54.6718 160.383 54.6718C159.263 54.6718 158.623 55.1556 158.143 55.6393C157.823 55.9619 157.663 56.1231 157.183 56.1231C156.702 56.1231 156.542 55.9619 156.222 55.6393C155.742 55.3168 155.102 54.6718 153.982 54.6718C152.861 54.6718 152.221 55.1556 151.741 55.6393C151.421 55.9619 151.261 56.1231 150.781 56.1231C150.301 56.1231 150.141 55.9619 149.821 55.6393C149.341 55.3168 148.7 54.6718 147.58 54.6718C146.46 54.6718 145.82 55.1556 145.339 55.6393C145.019 55.9619 144.859 56.1231 144.379 56.1231C143.899 56.1231 143.739 55.9619 143.419 55.6393C142.939 55.3168 142.299 54.6718 141.178 54.6718C140.058 54.6718 139.418 55.1556 138.938 55.6393C138.618 55.9619 138.458 56.1231 137.977 56.1231C137.497 56.1231 137.337 55.9619 137.017 55.6393C136.537 55.3168 135.897 54.6718 134.777 54.6718C133.656 54.6718 133.016 55.1556 132.536 55.6393C132.216 55.9619 132.056 56.1231 131.576 56.1231C130.776 56.1231 130.135 55.4781 130.135 54.6718C130.135 52.7367 137.017 47.2538 147.74 47.2538C158.463 47.2538 165.345 52.7367 165.345 54.6718C165.345 55.1556 165.825 55.6393 166.305 55.6393C166.785 55.6393 167.265 55.1556 167.265 54.6718C167.265 50.9628 158.463 45.3187 147.74 45.3187C137.017 45.3187 128.215 50.9628 128.215 54.6718C128.215 56.6069 129.815 58.2195 131.736 58.2195C132.856 58.2195 133.496 57.7357 133.976 57.2519C134.296 56.9294 134.457 56.7682 134.937 56.7682C135.417 56.7682 135.577 56.9294 135.897 57.2519C136.377 57.5745 137.017 58.2195 138.137 58.2195C139.258 58.2195 139.898 57.7357 140.378 57.2519C140.698 56.9294 140.858 56.7682 141.338 56.7682C141.818 56.7682 141.979 56.9294 142.299 57.2519C142.779 57.5745 143.419 58.2195 144.539 58.2195C145.66 58.2195 146.3 57.7357 146.78 57.2519C147.1 56.9294 147.26 56.7682 147.74 56.7682C148.22 56.7682 148.38 56.9294 148.7 57.2519C149.18 57.5745 149.821 58.2195 150.941 58.2195C152.061 58.2195 152.701 57.7357 153.182 57.2519C153.502 56.9294 153.662 56.7682 154.142 56.7682C154.622 56.7682 154.782 56.9294 155.102 57.2519C155.582 57.5745 156.222 58.2195 157.343 58.2195C158.463 58.2195 159.103 57.7357 159.583 57.2519C159.903 56.9294 160.063 56.7682 160.544 56.7682C161.024 56.7682 161.184 56.9294 161.504 57.2519C161.984 57.5745 162.624 58.2195 163.744 58.2195C164.705 58.2195 165.185 58.7033 165.185 58.8645C165.185 59.0258 165.025 59.0258 164.865 59.1871C164.545 59.3483 164.064 59.5096 163.744 59.5096H131.416C129.495 59.5096 127.895 61.1222 127.895 63.0573V64.0249C127.895 65.96 129.495 67.5726 131.416 67.5726H163.584C165.505 67.5726 167.105 65.96 167.105 64.0249C167.105 63.5411 166.625 63.0573 166.145 63.0573C165.665 63.0573 165.185 63.5411 165.185 64.0249C165.185 64.8312 164.545 65.4762 163.744 65.4762H131.416C130.615 65.4762 129.975 64.8312 129.975 64.0249V63.0573C129.975 62.251 130.615 61.606 131.416 61.606H163.584C164.385 61.606 165.185 61.4447 165.825 60.9609C166.465 60.4771 166.945 59.8321 166.945 59.0258C166.945 59.0258 166.945 59.0258 166.945 58.8645C166.945 58.8645 166.945 58.8645 166.945 58.7033C166.945 57.2519 165.505 56.1231 163.584 56.1231ZM138.618 50.9628L137.817 51.2853C137.657 51.4466 137.497 51.6079 137.497 51.7691C137.497 51.9304 137.497 52.0916 137.497 52.2529C137.657 52.4142 137.657 52.5754 137.977 52.5754H138.137C138.458 52.5754 138.778 52.4142 138.778 52.0916L138.938 51.2853C138.938 51.1241 138.938 51.1241 138.938 50.9628C138.778 50.9628 138.778 50.9628 138.618 50.9628ZM147.9 50.9628L147.1 51.2853C146.94 51.4466 146.78 51.6079 146.78 51.7691C146.62 52.0916 146.94 52.5754 147.26 52.5754H147.42C147.74 52.5754 148.06 52.4142 148.06 52.0916L148.22 51.2853C148.22 51.1241 148.22 51.1241 148.22 50.9628C148.06 50.9628 148.06 50.9628 147.9 50.9628ZM157.183 50.9628L156.382 51.2853C156.222 51.4466 156.062 51.6079 156.062 51.7691C155.902 52.0916 156.222 52.5754 156.542 52.5754H156.702C157.023 52.5754 157.343 52.4142 157.343 52.0916L157.503 51.2853C157.503 51.1241 157.503 51.1241 157.503 50.9628C157.343 50.9628 157.343 50.9628 157.183 50.9628ZM143.259 49.6727L142.459 49.9953C142.299 49.9953 142.139 50.3178 142.139 50.479C141.979 50.8016 142.299 51.2853 142.619 51.2853H142.779C143.099 51.2853 143.419 51.1241 143.419 50.8016L143.579 49.9953C143.579 49.834 143.579 49.834 143.419 49.6727C143.419 49.6727 143.419 49.6727 143.259 49.6727ZM152.541 49.6727L151.741 49.9953C151.581 50.1565 151.421 50.3178 151.421 50.479C151.421 50.6403 151.421 50.8016 151.421 50.9628C151.581 51.1241 151.581 51.2853 151.901 51.2853H152.061C152.381 51.2853 152.701 51.1241 152.701 50.8016L152.861 49.9953C152.861 49.834 152.861 49.834 152.861 49.6727C152.701 49.6727 152.701 49.6727 152.541 49.6727Z" fill="#313030"/>
<path d="M151.741 88.5364C151.741 88.3752 151.581 88.2139 151.421 88.2139L148.86 88.0526L147.9 85.6337C147.74 85.3112 147.26 85.3112 147.1 85.6337L146.14 88.0526L143.579 88.2139C143.419 88.2139 143.259 88.3752 143.259 88.5364C143.259 88.6977 143.259 88.8589 143.419 89.0202L145.499 90.6328L144.859 93.2129C144.859 93.3742 144.859 93.5355 145.019 93.6967C145.179 93.858 145.339 93.858 145.499 93.6967L147.74 92.2454L149.981 93.6967H150.141C150.301 93.6967 150.621 93.5355 150.621 93.2129V93.0517L149.981 90.6328L152.061 89.0202C151.741 89.0202 151.901 88.6977 151.741 88.5364Z" fill="#313030"/>
<path d="M163.744 89.9877H155.422C155.262 89.9877 154.942 89.8264 154.942 89.6652C154.942 89.5039 155.102 89.1814 155.422 89.1814H163.744C163.904 89.1814 164.224 89.3427 164.224 89.6652C164.224 89.9877 164.064 89.9877 163.744 89.9877Z" fill="#313030"/>
<path d="M162.464 92.0841H154.142C153.982 92.0841 153.662 91.9229 153.662 91.6004C153.662 91.4391 153.822 91.1166 154.142 91.1166H162.464C162.624 91.1166 162.944 91.2778 162.944 91.6004C162.784 91.9229 162.624 92.0841 162.464 92.0841Z" fill="#313030"/>
<path d="M139.578 89.9877H131.256C131.096 89.9877 130.776 89.8264 130.776 89.6652C130.776 89.5039 130.936 89.1814 131.256 89.1814H139.578C139.738 89.1814 140.058 89.3427 140.058 89.6652C140.058 89.9877 139.738 89.9877 139.578 89.9877Z" fill="#313030"/>
<path d="M140.858 92.0841H132.536C132.376 92.0841 132.056 91.9229 132.056 91.6004C132.056 91.4391 132.216 91.1166 132.536 91.1166H140.858C141.018 91.1166 141.338 91.2778 141.338 91.6004C141.338 91.9229 141.178 92.0841 140.858 92.0841Z" fill="#313030"/>
</svg>
