<svg width="296" height="112" viewBox="0 0 296 112" fill="none" xmlns="http://www.w3.org/2000/svg">
<rect width="296" height="112" fill="white"/>
<path fill-rule="evenodd" clip-rule="evenodd" d="M150.986 19C151.156 19 151.326 19 151.496 19.1693C152.176 19.3386 152.687 19.6772 152.857 20.5237V25.9413C152.857 27.465 152.857 29.158 152.687 30.6817V30.851C152.687 31.1896 152.857 31.3589 153.197 31.3589H153.367C153.367 31.6975 153.367 32.2054 152.857 32.3747C152.517 32.544 152.006 32.544 151.666 32.544C151.326 32.3747 151.156 32.2054 151.156 31.8668C151.156 31.8156 151.141 31.7488 151.124 31.676C151.084 31.5081 151.038 31.3077 151.156 31.1896V27.465C151.12 27.465 151.038 27.4574 150.926 27.4469C150.511 27.4083 149.687 27.3317 149.286 27.465V32.3747C148.776 32.544 148.435 32.544 147.925 32.544C147.755 32.544 147.585 32.3747 147.585 32.2054V31.1896C147.585 28.9887 147.585 26.6185 147.755 24.4176V21.2009C147.755 20.1851 148.265 19.5079 149.286 19.1693C149.456 19.1693 149.626 19.1693 149.796 19H150.986ZM149.456 25.9413H151.326V21.3702C151.326 20.8623 151.156 20.693 150.646 20.5237H150.136C149.796 20.5237 149.456 20.8623 149.456 21.2009V25.9413Z" fill="#313030"/>
<path d="M93 36.2686C93 36.3533 93.0425 36.3956 93.085 36.4379C93.1275 36.4802 93.1701 36.5226 93.1701 36.6072L96.2309 39.6546C99.2006 42.5268 102.213 45.4411 105.225 48.3555L105.244 48.374C108.262 51.2943 111.28 54.2146 114.256 57.0926C114.426 57.0926 114.426 57.0926 114.596 57.2618L93.3401 78.4244L94.5304 79.6095L115.446 58.2777C117.487 60.14 119.357 62.0023 121.228 63.8646L122.078 63.0181L116.296 57.2619C117.339 56.2241 118.337 55.1864 119.313 54.1712C120.248 53.1992 121.163 52.2473 122.078 51.3364L121.228 50.4899C120.611 51.1044 119.993 51.7374 119.37 52.3766C118.104 53.6744 116.813 54.9984 115.446 56.2461L94.1903 35.0835L93 36.2686Z" fill="#313030"/>
<path fill-rule="evenodd" clip-rule="evenodd" d="M202 62.0023V61.833H200.98V60.14C200.81 59.1242 200.47 58.1084 199.959 57.2619C199.619 56.754 199.279 56.2461 198.769 55.7382C198.769 55.7382 198.599 55.7382 198.599 55.5689C198.704 55.5689 198.744 55.5042 198.8 55.4148C198.834 55.3596 198.874 55.2949 198.939 55.2303C199.789 54.2145 200.47 53.0294 200.81 51.675C200.98 51.5057 200.98 51.167 200.98 50.9977V49.3047C200.81 48.2889 200.47 47.2732 199.789 46.596C198.599 45.4109 196.899 44.5644 195.028 45.2416H194.858C194.858 45.1569 194.901 45.1146 194.943 45.0723C194.986 45.0299 195.028 44.9876 195.028 44.903C195.135 44.6894 195.259 44.4591 195.39 44.2172L195.391 44.2156L195.391 44.2146C195.674 43.6901 195.986 43.1112 196.218 42.5327C196.388 42.1941 196.559 41.6863 196.559 41.1784C196.729 39.824 196.218 38.3002 194.858 37.623C194.348 37.2844 193.498 37.1151 192.817 37.2844C191.627 37.623 190.607 38.4695 190.097 39.6546C189.927 39.8239 189.927 40.1624 189.927 40.3317C189.927 40.8396 190.267 41.3477 190.777 41.517C191.287 41.6863 191.797 41.517 192.137 41.1784C192.307 41.1784 192.477 41.009 192.477 40.8397C192.988 39.9932 192.477 39.1467 191.457 39.1467H191.117C191.117 38.9774 191.117 38.9774 191.287 38.8082C191.967 38.131 192.817 37.7924 193.838 37.7924C194.858 37.9617 195.538 38.6389 195.708 39.4854C195.822 39.7111 195.784 39.9368 195.746 40.1625C195.727 40.2754 195.708 40.3883 195.708 40.5011C195.538 41.5169 195.198 42.3635 194.688 43.21C194.433 43.7179 194.135 44.2681 193.838 44.8183L193.837 44.8193C193.54 45.3692 193.242 45.919 192.988 46.4266C192.903 46.596 192.817 46.8076 192.732 47.0192C192.647 47.2308 192.562 47.4425 192.477 47.6117C192.307 48.2889 192.137 48.9662 192.137 49.6434C192.137 50.8285 192.988 52.0136 194.008 52.3522C194.036 52.3614 194.063 52.3707 194.09 52.3799C194.127 52.3924 194.163 52.4049 194.198 52.417C194.609 52.5596 194.924 52.6689 195.368 52.5215C196.729 52.1829 197.919 50.9978 198.089 49.6434C198.089 48.9662 197.919 48.4583 197.579 48.1196C196.899 47.6118 196.048 47.6118 195.538 48.289C195.198 48.7969 195.198 49.3048 195.538 49.8127C196.048 50.3206 196.559 50.4899 197.069 50.1512C197.154 50.1512 197.196 50.1089 197.239 50.0666C197.281 50.0243 197.324 49.982 197.409 49.982C197.239 50.1513 197.239 50.3206 197.239 50.4899C196.899 51.3364 196.388 51.8443 195.368 52.0136C194.008 52.1829 193.158 51.1671 193.328 49.982C193.413 49.728 193.498 49.5164 193.583 49.3048C193.668 49.0932 193.753 48.8814 193.838 48.6276C193.945 48.4131 194.07 48.1817 194.201 47.9386C194.484 47.4143 194.796 46.8358 195.028 46.2574C195.028 46.2574 195.028 46.0881 195.198 46.0881C195.305 46.0527 195.404 46.0174 195.498 45.9836C195.858 45.8555 196.155 45.7495 196.559 45.7495C197.579 45.7495 198.429 46.088 199.109 46.7652C199.619 47.2731 199.959 47.781 200.13 48.4582C200.449 49.2544 200.318 49.9009 200.16 50.6792L200.13 50.8285C199.619 52.3522 198.769 53.5373 197.749 54.5531H197.579C197.494 54.5531 197.451 54.5107 197.409 54.4684C197.366 54.4261 197.324 54.3838 197.239 54.3838C196.218 53.7066 195.028 53.1987 193.668 53.0294C191.457 52.6908 189.757 53.5373 188.566 55.2303C188.501 55.2949 188.445 55.3486 188.396 55.3945C188.263 55.5211 188.192 55.588 188.184 55.6613C188.176 55.7435 188.247 55.8339 188.396 56.0254C188.445 56.0873 188.501 56.1598 188.566 56.2461C189.927 58.1084 191.967 58.7856 194.178 58.447C195.368 58.2777 196.388 57.7698 197.409 57.0926C197.579 57.0926 197.749 56.9233 197.749 56.9233H197.919C198.939 57.9391 199.619 58.9549 200.13 60.3093C200.3 61.1558 200.47 62.0023 200.3 62.8488C199.959 64.7111 197.579 66.4041 195.368 65.3883C195.303 65.3236 195.238 65.2836 195.183 65.2495C195.093 65.1943 195.028 65.1543 195.028 65.0497C194.642 64.5368 194.353 63.9267 194.088 63.3667C194.003 63.1874 193.92 63.013 193.838 62.8488L193.328 61.3251C193.158 60.3093 193.838 59.2935 195.028 59.4628C196.048 59.4628 196.899 59.9707 197.239 60.9865V61.3251C197.154 61.3251 197.111 61.2827 197.069 61.2404C197.026 61.1981 196.984 61.1558 196.899 61.1558C196.778 61.1558 196.679 61.1345 196.586 61.1146C196.417 61.0783 196.268 61.0464 196.048 61.1558C195.538 61.3251 195.198 61.6637 195.198 62.1716C195.198 62.8488 195.538 63.1874 196.048 63.526C196.559 63.6953 197.069 63.6953 197.409 63.3567C198.089 62.8488 198.259 62.3409 198.089 61.6637C197.749 60.3093 196.899 59.4628 195.708 58.9549C194.858 58.6163 194.008 58.7856 193.328 59.2935C192.307 59.9707 191.967 60.9865 192.137 62.1716C192.307 62.8488 192.647 63.6953 192.988 64.3725C193.158 64.6264 193.285 64.8803 193.413 65.1342C193.54 65.3881 193.668 65.6423 193.838 65.8962C194.348 66.7426 194.858 67.7582 195.368 68.7739C195.653 69.3412 195.819 70.0276 195.965 70.6335L195.965 70.6352C195.993 70.752 196.021 70.8658 196.048 70.9752C196.218 72.1603 195.708 73.1761 194.518 73.3454C193.498 73.684 192.477 73.1761 191.797 72.3296C191.797 72.3296 191.627 72.1603 191.627 71.991H191.967C192.647 71.991 193.328 71.6524 193.328 70.8059C193.328 70.1287 192.988 69.6208 192.307 69.4515C191.967 69.4515 191.797 69.4515 191.457 69.6208C191.117 69.9594 190.777 70.4673 190.947 70.9752C190.947 71.3138 190.947 71.4831 191.117 71.6524C191.627 72.4989 192.307 73.1761 193.328 73.684C193.838 74.0226 194.518 74.0226 195.198 73.8533C196.559 73.5147 197.579 72.1603 197.749 70.8059C197.919 69.9594 197.749 69.2822 197.409 68.605C197.239 68.1818 197.026 67.7586 196.814 67.3355C196.601 66.9122 196.388 66.4887 196.218 66.0655C196.218 65.9808 196.176 65.9385 196.133 65.8962C196.091 65.8539 196.048 65.8115 196.048 65.7269C196.218 65.8962 196.218 65.8962 196.388 65.8962C197.069 66.2348 197.749 66.2348 198.429 66.0655C200.13 65.7269 201.83 64.2032 202 62.0023ZM190.947 55.7382C192.477 56.9233 195.028 56.754 196.559 55.7382C194.858 54.5531 192.477 54.5531 190.947 55.7382Z" fill="#313030"/>
<path d="M149.723 93.3831C149.822 93.6377 149.912 93.8693 150.306 94H151.156C151.156 93.8307 151.326 93.8307 151.326 93.8307C151.666 93.6614 151.836 93.4921 151.836 92.9842H151.666C151.604 92.9532 151.547 92.9278 151.496 92.905C151.269 92.8035 151.156 92.7528 151.156 92.4763V90.9526C151.326 88.7517 151.326 86.5508 151.326 84.3499V83.6727C151.156 83.1648 150.816 82.8262 150.306 82.6569C149.626 82.4876 148.945 82.6569 148.435 82.9955L148.265 83.1648C147.755 82.4876 147.245 82.3183 146.735 82.6569C146.395 82.8262 146.225 83.1648 146.225 83.5034H146.395C146.457 83.5345 146.514 83.5599 146.565 83.5827C146.792 83.6841 146.905 83.7348 146.905 84.0113V84.1806C146.735 86.5508 146.735 88.7517 146.735 91.1219V93.4921C146.735 93.8307 146.735 93.8307 147.075 93.8307H148.095V91.7991C148.265 89.4289 148.265 86.8894 148.265 84.5192C148.265 84.1807 148.265 84.0113 148.605 83.842C148.775 83.6727 148.775 83.6727 148.945 83.6727C149.456 83.5034 149.796 83.842 149.796 84.3499V86.0429C149.626 88.2438 149.626 90.4447 149.626 92.6456V93.1535C149.664 93.2307 149.694 93.3079 149.723 93.3831Z" fill="#313030"/>
<path d="M125.309 58.7855H131.771V67.0812H140.443C141.633 67.0812 142.824 66.912 144.014 66.5734C144.694 66.4041 145.204 66.0655 145.714 65.5576C146.905 64.5418 147.415 63.1873 147.245 61.6636C147.245 60.9865 147.075 60.4786 146.905 59.9708C146.225 58.6164 145.204 57.7698 143.674 57.2619C143.504 57.2619 143.334 57.2618 143.164 57.0925C143.334 57.0925 143.334 57.0925 143.334 56.9234C145.204 56.4155 146.225 55.0609 146.395 53.1986C146.565 51.5056 145.884 49.9819 144.354 48.9661C143.844 48.6275 143.334 48.4583 142.824 48.289C142.7 48.2643 142.58 48.2396 142.462 48.2155C141.772 48.074 141.169 47.9503 140.443 47.9503H131.771V55.7381H125.309V44.7336C125.309 43.5485 126.159 42.702 127.349 42.5327H151.496C152.346 42.702 153.026 43.5485 153.026 44.5643V68.4357C152.856 69.2822 152.006 69.9594 151.156 69.9594H127.009C125.989 69.7901 125.479 68.9436 125.309 67.9277V58.7855Z" fill="#313030"/>
<path fill-rule="evenodd" clip-rule="evenodd" d="M170.371 49.6433C168.501 48.4582 166.46 47.9503 164.42 47.9503C163.059 47.9503 161.869 48.1196 160.679 48.7968C155.917 50.4898 153.367 55.2302 154.557 59.9706C155.237 63.018 157.108 65.0497 159.828 66.4041C162.039 67.4199 164.25 67.5891 166.63 67.0812C168.671 66.5733 170.371 65.7269 171.732 64.3725C173.942 62.1716 174.792 59.4628 174.452 56.4154C174.112 53.5373 172.752 51.3363 170.371 49.6433ZM164.42 50.8284C168.161 50.8284 171.222 53.8758 171.222 57.6005C171.222 61.1558 168.501 64.3725 164.25 64.3725C160.509 64.3725 157.448 61.3251 157.448 57.6005C157.448 53.7065 160.679 50.8284 164.42 50.8284Z" fill="#313030"/>
<path d="M160.169 33.0519C159.658 33.0519 159.148 33.0519 158.808 32.8826C158.638 32.8826 158.468 32.7133 158.638 32.544C158.638 32.2054 158.638 31.8668 158.808 31.6975C158.978 30.7665 159.106 29.8778 159.233 28.9891C159.361 28.1003 159.488 27.211 159.658 26.2799L160.169 22.2167V21.7088C160.169 21.3702 159.999 21.2009 159.658 21.0316C159.148 20.8623 158.808 21.0316 158.468 21.3702C158.468 21.3702 158.298 21.5395 158.298 21.7088C158.128 22.5553 157.958 23.5711 157.958 24.4176C157.865 25.2511 157.721 26.0846 157.582 26.8904C157.467 27.5576 157.355 28.2059 157.278 28.8194C157.108 29.8352 156.938 31.0203 156.938 32.0361V32.544C156.428 32.544 155.917 32.544 155.577 32.3747C155.407 32.3747 155.407 32.2054 155.407 32.0361C155.407 31.6975 155.407 31.5282 155.577 31.1896C155.747 30.0891 155.917 28.9463 156.088 27.8035C156.258 26.6609 156.428 25.5179 156.598 24.4176L157.108 21.3702V21.2009C157.108 20.693 157.108 20.693 156.598 20.5237H156.428C156.428 20.0158 156.598 19.6772 157.108 19.6772C157.334 19.5643 157.561 19.6019 157.788 19.6396C157.901 19.6584 158.015 19.6772 158.128 19.6772C158.298 19.6772 158.468 19.8464 158.638 20.0157C158.638 20.1003 158.681 20.1428 158.723 20.1851C158.766 20.2274 158.808 20.2697 158.808 20.3544C159.318 20.0158 159.999 19.8465 160.509 20.0158C161.189 20.1851 161.699 20.3544 162.039 21.0316C162.124 21.0316 162.167 20.9893 162.209 20.9469C162.252 20.9046 162.294 20.8623 162.379 20.8623C163.059 20.5237 163.91 20.3544 164.59 20.693C165.27 21.0316 165.61 21.5395 165.61 22.2167C165.61 22.7246 165.61 23.2325 165.44 23.7404C165.355 24.5022 165.227 25.2641 165.1 26.0259C164.972 26.7878 164.845 27.5496 164.76 28.3115C164.675 28.9879 164.59 29.6221 164.505 30.2562L164.505 30.2582C164.42 30.893 164.335 31.5282 164.25 32.2054V32.544C164.25 32.7133 164.42 32.8826 164.59 33.0519H164.76C164.76 33.3905 164.59 33.8984 164.08 33.8984C163.74 34.0677 163.399 34.0677 162.889 33.8984C162.549 33.7291 162.379 33.3905 162.379 33.0519V32.2054C162.549 30.9357 162.719 29.7082 162.889 28.4808L162.89 28.4766C163.06 27.2506 163.23 26.0245 163.4 24.7562C163.485 24.4176 163.527 24.0791 163.57 23.7405C163.612 23.4019 163.655 23.0632 163.74 22.7246C163.74 22.386 163.57 22.0474 163.229 21.8781C162.889 21.7088 162.549 21.8781 162.209 22.0474L161.869 22.386L161.359 25.4334C161.266 26.2668 161.122 27.1002 160.983 27.9059C160.868 28.5732 160.756 29.2217 160.679 29.8352C160.509 30.8509 160.339 31.8669 160.339 33.0519H160.169Z" fill="#313030"/>
<path d="M145.715 32.7133C146.055 32.544 146.395 32.0361 146.225 31.5282C146.055 31.3589 146.055 31.3589 145.885 31.5282C145.822 31.4971 145.766 31.4718 145.715 31.4489C145.488 31.3475 145.374 31.2968 145.374 31.0203V30.851C145.289 30.0045 145.204 29.2003 145.119 28.3961C145.034 27.592 144.949 26.7878 144.864 25.9413L144.354 21.8781C144.354 21.5395 144.354 21.2009 144.184 20.8623C144.014 20.3544 143.504 20.0158 142.994 19.8465C142.314 19.6772 141.633 19.8465 140.953 20.3544L140.613 20.693L140.443 20.5237C140.273 20.3544 140.103 20.1851 139.933 20.1851C139.593 20.1851 139.253 20.1851 138.913 20.3544C138.573 20.5237 138.403 20.8623 138.573 21.3702H138.743C139.083 21.3702 139.253 21.5395 139.253 21.8781V22.0474C139.253 22.3013 139.295 22.5976 139.338 22.8939C139.38 23.1902 139.423 23.4864 139.423 23.7404C139.423 24.9253 139.593 26.1103 139.763 27.2952C139.848 27.9724 139.933 28.6924 140.018 29.4119C140.103 30.1315 140.188 30.851 140.273 31.5282C140.273 31.7821 140.316 31.9938 140.358 32.2054C140.401 32.417 140.443 32.6286 140.443 32.8826C140.532 33.0593 140.574 33.1438 140.643 33.1842C140.706 33.2212 140.791 33.2212 140.953 33.2212C141.123 33.2212 141.251 33.1789 141.378 33.1366C141.506 33.0942 141.633 33.0519 141.804 33.0519C141.889 33.0519 141.974 33.0096 142.059 32.9673C142.144 32.9249 142.229 32.8826 142.314 32.8826V32.7133C142.229 32.3747 142.186 31.9938 142.144 31.6129C142.101 31.2319 142.059 30.851 141.974 30.5124C141.974 29.3274 141.804 28.1424 141.634 26.9575C141.548 26.4496 141.506 25.9413 141.463 25.4334C141.421 24.9255 141.378 24.4176 141.293 23.9097C141.293 23.6557 141.251 23.3595 141.208 23.0632C141.166 22.7669 141.123 22.4706 141.123 22.2167V21.8781C141.293 21.7088 141.463 21.5395 141.804 21.3702C142.314 21.2009 142.824 21.3702 142.824 22.0474C142.909 22.5553 142.951 23.1054 142.994 23.6556C143.036 24.2058 143.079 24.7562 143.164 25.2641C143.243 26.1316 143.359 27.0358 143.478 27.9597C143.614 29.019 143.753 30.1044 143.844 31.1896C143.844 31.5282 143.844 31.8668 144.014 32.2054C144.184 32.7133 144.524 32.8826 145.034 32.8826C145.234 32.8826 145.374 32.8245 145.491 32.7764C145.574 32.7424 145.644 32.7133 145.715 32.7133Z" fill="#313030"/>
<path d="M135.172 64.2031V58.7855H140.273C140.953 58.7855 141.633 58.7855 142.144 59.1241C142.484 59.2934 142.824 59.4627 142.994 59.632C144.354 60.4785 144.184 62.5101 143.164 63.3566C142.654 63.6952 142.144 64.0339 141.463 64.0339C141.293 64.0339 141.081 64.0762 140.868 64.1185C140.656 64.1608 140.443 64.2031 140.273 64.2031H135.172Z" fill="#313030"/>
<path d="M111.195 29.4966C110.855 29.8352 110.685 30.3431 111.025 30.851C111.705 30.6817 111.875 30.6817 112.385 31.0203C112.385 31.0203 112.555 31.1896 112.555 31.3589C114.086 34.4063 115.956 37.1151 118.167 39.6546L118.677 40.1625C118.847 40.3318 119.187 40.3318 119.527 40.1625C119.697 39.9932 120.037 39.8239 120.377 39.6546C120.548 39.4853 120.718 39.316 120.718 38.9774V38.4695C120.718 37.9616 120.548 37.4537 120.377 36.9458C119.697 34.5756 118.677 32.2054 117.657 29.8352C117.317 28.9888 116.976 28.1421 116.466 27.2957C116.296 26.9571 116.126 26.9571 115.786 27.1264C115.616 27.2111 115.489 27.2957 115.361 27.3804C115.234 27.465 115.106 27.5497 114.936 27.6343C114.851 27.6343 114.808 27.6767 114.766 27.719C114.723 27.7613 114.681 27.8036 114.596 27.8036C115.276 28.6501 115.786 29.4966 116.126 30.3431C117.317 32.8826 118.337 35.5914 119.187 38.3002V38.6388C119.017 38.6388 118.847 38.4695 118.847 38.4695C118.167 37.623 117.487 36.7765 116.806 35.7607C115.446 33.8984 114.256 32.0361 113.236 30.0045C113.151 29.9199 113.065 29.7929 112.98 29.666C112.895 29.539 112.81 29.412 112.725 29.3273C112.385 28.9887 112.045 28.9887 111.705 29.158C111.535 29.158 111.365 29.3273 111.195 29.4966Z" fill="#313030"/>
<path d="M178.874 28.4808C179.044 28.0999 179.214 27.719 179.384 27.2957C179.384 27.1264 179.384 27.1264 179.554 26.9572C179.694 26.6785 179.603 26.5145 179.472 26.2765C179.444 26.2253 179.414 26.1706 179.384 26.1106C179.214 25.9413 179.044 25.772 178.704 25.772C178.194 25.772 178.023 25.772 177.853 26.2799C177.513 26.9571 177.173 27.8036 177.003 28.4809C176.833 28.8195 176.833 29.3273 177.173 29.6659C177.428 30.0044 177.641 30.3006 177.853 30.5967C178.066 30.893 178.279 31.1897 178.534 31.5282C179.044 32.2054 179.044 32.8827 178.704 33.5599L177.683 36.0994C177.343 37.1152 176.493 37.4537 175.303 37.4537C174.623 37.2844 173.942 37.1151 173.432 36.6072C173.092 36.2687 172.752 35.93 172.752 35.5915C172.582 35.2529 172.582 34.9142 172.752 34.5756C172.922 34.1524 173.092 33.7715 173.262 33.3906C173.432 33.0097 173.602 32.6287 173.772 32.2055C173.942 31.8669 174.112 31.8669 174.282 31.8669C174.793 31.8669 175.133 32.0362 175.473 32.2055C175.303 32.6287 175.133 33.0097 174.963 33.3906C174.793 33.7715 174.623 34.1524 174.452 34.5756C174.282 34.9142 174.282 35.2529 174.452 35.5915C174.793 35.9301 175.133 36.0994 175.643 35.9301C175.813 35.9301 176.153 35.7607 176.153 35.4221C176.493 34.7449 176.833 33.8984 177.003 33.2212C177.173 32.7133 177.173 32.3747 176.833 32.0361C176.641 31.7812 176.473 31.5262 176.311 31.2802C176.043 30.873 175.791 30.4905 175.473 30.1739C175.133 29.666 174.963 28.9888 175.303 28.4809C175.521 27.8296 175.809 27.1783 176.077 26.5717C176.227 26.2321 176.371 25.9065 176.493 25.6027C176.833 24.7562 177.683 24.4176 178.534 24.4176C179.384 24.4176 180.064 24.7562 180.574 25.2641C180.744 25.4334 180.914 25.6027 181.084 25.9413C181.424 26.4492 181.424 26.7878 181.254 27.2957C181.084 27.719 180.914 28.0999 180.744 28.4808C180.574 28.8616 180.404 29.2428 180.234 29.6659C180.064 29.8352 179.894 30.0045 179.724 30.0045C179.214 30.0045 178.704 30.0045 178.364 29.6659C178.534 29.2428 178.704 28.8616 178.874 28.4808Z" fill="#313030"/>
<path d="M129.05 29.8352L128.54 28.8195C128.37 28.9041 128.157 28.9888 127.945 29.0734C127.732 29.1581 127.52 29.2427 127.349 29.3274C126.839 29.4967 126.499 29.3274 126.329 28.8195V28.6501L125.309 25.6027C125.139 25.4335 125.139 25.4334 125.139 25.2642C125.139 24.9256 125.139 24.5869 125.479 24.4176C125.479 24.4176 125.649 24.2484 125.819 24.2484C126.329 24.0791 126.669 24.2483 126.839 24.7562L127.349 26.28C127.52 26.28 127.52 26.4493 127.52 26.6186C128.03 26.6186 128.37 26.4492 128.71 26.1106C128.88 25.9413 128.88 25.772 128.88 25.6027L128.37 24.079C128.2 23.4018 127.69 23.0633 127.009 22.894C125.989 22.7247 125.139 23.0633 124.289 23.7405C123.778 24.0791 123.608 24.4176 123.608 24.9255C123.608 25.2641 123.608 25.6028 123.778 25.9414L124.799 28.9887C124.969 29.4966 125.139 30.0046 125.819 30.3432C125.479 30.8511 125.479 31.359 125.649 31.8669C125.819 32.29 125.989 32.7555 126.159 33.221C126.329 33.6865 126.499 34.1524 126.669 34.5757C126.669 34.6603 126.712 34.7026 126.754 34.745C126.797 34.7873 126.839 34.8296 126.839 34.9143C127.179 35.5915 127.86 35.9301 128.54 35.9301C129.39 35.9301 130.07 35.7608 130.75 35.2529C131.09 35.0836 131.261 34.9143 131.431 34.5757C131.453 34.5101 131.475 34.4473 131.496 34.3866C131.639 33.9775 131.749 33.6636 131.601 33.2213C131.601 32.8827 131.431 32.3748 131.261 32.0362C131.09 31.8669 130.92 31.6976 130.75 31.6976C130.24 31.6976 129.73 31.8669 129.39 32.0362C129.56 32.2054 129.56 32.2054 129.56 32.3747C129.56 32.8826 129.73 33.2213 129.9 33.5599C130.07 33.8985 129.9 34.2371 129.56 34.4064C129.475 34.4064 129.39 34.4487 129.305 34.491C129.22 34.5333 129.135 34.5757 129.05 34.5757C128.54 34.745 128.2 34.5757 128.03 34.0678C127.86 33.6445 127.732 33.2212 127.605 32.798C127.477 32.3747 127.349 31.9515 127.179 31.5282C127.009 31.0203 127.179 30.6818 127.69 30.5125H127.86C128.03 30.4278 128.2 30.3855 128.37 30.3432C128.54 30.3008 128.71 30.2585 128.88 30.1739C129.05 30.1739 129.05 30.0045 129.05 29.8352Z" fill="#313030"/>
<path d="M169.861 31.8668C170.371 31.8668 170.882 32.0361 171.222 32.3747C171.392 32.544 171.392 32.7132 171.392 32.8825C171.307 33.1365 171.264 33.3482 171.222 33.5598C171.179 33.7715 171.137 33.9831 171.052 34.237C170.882 34.9142 170.201 35.2528 169.521 35.4221C168.671 35.5914 167.821 35.2528 167.14 34.7449C166.46 34.237 166.12 33.3905 166.29 32.544C166.46 32.0361 166.588 31.5705 166.715 31.1049C166.843 30.6394 166.97 30.1738 167.14 29.6659C167.311 29.158 167.481 28.9887 167.991 28.4808C167.991 28.4808 167.991 28.3115 167.821 28.3115C167.651 27.9729 167.651 27.465 167.821 27.1264L167.822 27.1235C168.161 25.9394 168.501 24.7554 168.841 23.7404C169.181 22.7246 169.861 22.2167 170.882 22.2167C171.562 22.2167 172.242 22.386 172.922 22.8939C173.432 23.2325 173.772 23.5711 173.772 24.2483V24.9255L173.262 26.4492C173.231 26.5113 173.206 26.5677 173.183 26.6183C173.081 26.8441 173.03 26.9571 172.752 26.9571C172.412 26.9571 171.902 26.9571 171.562 26.6185V26.4492L171.562 26.4483C171.732 25.9407 171.902 25.433 172.072 24.7562C172.242 24.2483 172.072 24.079 171.562 23.9097H171.222C170.712 23.7404 170.371 24.079 170.201 24.4176C170.116 24.8409 169.989 25.2218 169.861 25.6027C169.734 25.9837 169.606 26.3646 169.521 26.7878C169.436 26.9571 169.394 27.1264 169.351 27.2957C169.309 27.465 169.266 27.6343 169.181 27.8036C169.011 28.3115 169.181 28.6501 169.691 28.8194C169.776 28.8194 169.904 28.8618 170.031 28.9041C170.159 28.9464 170.286 28.9887 170.371 28.9887C170.541 28.9887 170.882 28.9887 171.052 29.158C171.052 29.4966 171.052 30.0045 170.882 30.3431C170.882 30.5124 170.711 30.5124 170.541 30.5124C170.371 30.4278 170.201 30.3855 170.031 30.3431C169.861 30.3008 169.691 30.2585 169.521 30.1738H169.181C168.671 30.1738 168.501 30.3431 168.331 30.6817L167.821 32.2054C167.736 32.3747 167.693 32.544 167.651 32.7133C167.608 32.8826 167.566 33.0519 167.481 33.2212C167.311 33.7291 167.481 34.0677 167.991 34.237C168.076 34.237 168.161 34.2794 168.246 34.3217C168.331 34.364 168.416 34.4063 168.501 34.4063C168.841 34.4063 169.181 34.237 169.181 33.8984C169.266 33.7291 169.309 33.5598 169.351 33.3905C169.394 33.2212 169.436 33.0519 169.521 32.8826C169.549 32.7462 169.572 32.6273 169.592 32.5239C169.696 31.9866 169.719 31.8668 169.861 31.8668Z" fill="#313030"/>
<path d="M182.105 32.0361C181.765 32.544 181.594 33.0519 181.765 33.7291C181.254 33.8984 180.914 34.0677 181.084 34.5756C180.574 35.4221 180.064 36.2686 179.554 37.2844C179.214 37.9616 179.214 38.6388 179.724 39.316C179.724 39.4853 179.894 39.6546 180.064 39.8239C180.404 40.1625 180.914 40.3318 181.424 40.5011C181.764 40.6704 182.105 40.6705 182.445 40.6705C182.955 40.6705 183.295 40.5011 183.635 39.9932C183.72 39.8239 183.848 39.6123 183.975 39.4007C184.103 39.1891 184.23 38.9774 184.315 38.8081C184.485 38.6388 184.485 38.4695 184.315 38.3002C183.975 37.7923 183.635 37.623 183.125 37.4537C183.125 37.5384 183.082 37.5807 183.04 37.623C182.997 37.6654 182.955 37.7077 182.955 37.7924L182.445 38.8081C182.445 38.9774 182.275 39.1467 182.105 39.1467C181.765 39.316 181.254 39.1467 180.914 38.8081C180.744 38.4695 180.744 38.131 180.914 37.7924C181.084 37.1151 181.424 36.6072 181.765 36.0993C181.85 36.0147 181.892 35.8877 181.935 35.7607C181.977 35.6338 182.02 35.5068 182.105 35.4221C182.275 35.0835 182.785 34.9142 183.125 35.0835C183.21 35.0835 183.252 35.1259 183.295 35.1682C183.337 35.2105 183.38 35.2528 183.465 35.2528C183.635 35.3375 183.763 35.4221 183.89 35.5068C184.018 35.5914 184.145 35.6761 184.315 35.7607C184.485 35.93 184.485 35.93 184.655 35.7607C184.995 35.4221 185.165 34.9142 185.165 34.5756C185.08 34.491 184.953 34.4487 184.825 34.4063C184.698 34.364 184.57 34.3217 184.485 34.237C184.355 34.1724 184.25 34.1324 184.161 34.0983C184.015 34.043 183.91 34.0031 183.805 33.8984C183.295 33.7291 183.295 33.3905 183.465 32.8826C183.72 32.3748 184.018 31.867 184.315 31.3592C184.613 30.8513 184.91 30.3431 185.165 29.8352C185.506 29.4966 185.846 29.3273 186.186 29.4966C186.356 29.4966 186.526 29.4966 186.696 29.6659C186.726 29.7259 186.756 29.7806 186.784 29.8318C186.915 30.0698 187.006 30.2338 186.866 30.5124C186.866 30.5971 186.823 30.6394 186.781 30.6817C186.738 30.7241 186.696 30.7664 186.696 30.851C186.526 31.105 186.398 31.3589 186.271 31.6129C186.143 31.8668 186.016 32.1208 185.846 32.3747C186.186 32.7133 186.526 32.8826 187.036 32.8826C187.206 32.8826 187.376 32.7134 187.546 32.5441C187.716 32.2901 187.844 32.0361 187.971 31.7822C188.099 31.5282 188.226 31.2743 188.396 31.0203C188.566 30.5124 188.566 30.0045 188.396 29.4966C188.311 29.412 188.226 29.285 188.141 29.158C188.056 29.0311 187.971 28.9041 187.886 28.8194C187.376 28.4808 186.866 28.1422 186.186 27.9729C185.676 27.8036 185.335 27.8036 184.995 27.9729C184.485 28.1422 184.145 28.4808 183.805 28.9887C183.125 30.0045 182.615 31.0204 182.105 32.0361Z" fill="#313030"/>
<path d="M135.172 55.9074V50.8284H140.103C140.613 50.8284 141.293 50.8284 141.803 50.9977C142.484 51.167 143.164 51.6749 143.334 52.5214C143.674 53.5372 143.504 54.8916 141.973 55.5688C141.463 55.7381 140.953 55.9074 140.443 55.9074H135.172Z" fill="#313030"/>
<path fill-rule="evenodd" clip-rule="evenodd" d="M131.601 79.6094C131.261 79.6094 130.92 79.7787 130.75 80.2866C131.183 80.43 131.249 80.5735 131.362 80.8198L131.363 80.8209C131.383 80.865 131.405 80.9125 131.431 80.9638C131.261 81.1331 131.261 81.1331 131.261 81.3024C130.836 82.7411 130.368 84.1797 129.901 85.6184L129.9 85.6201C129.433 87.0587 128.965 88.4981 128.54 89.9367C128.37 89.9367 128.37 90.106 128.37 90.2753C128.54 90.4446 128.54 90.4447 128.71 90.4447C129.05 90.5293 129.348 90.614 129.645 90.6986C129.943 90.7832 130.24 90.8679 130.58 90.9525C130.665 90.9525 130.793 90.9949 130.92 91.0372C131.048 91.0795 131.176 91.1219 131.261 91.1219C132.281 91.2912 132.961 90.7832 133.301 89.7674C133.386 89.4289 133.471 89.1327 133.556 88.8366C133.641 88.5403 133.726 88.2437 133.811 87.9052C133.981 87.3973 133.981 86.8893 133.641 86.3814C134.151 86.2121 134.321 85.7042 134.491 85.1963C134.576 84.8577 134.661 84.5615 134.747 84.2652C134.832 83.9689 134.917 83.6726 135.002 83.334C135.076 83.1114 135.118 82.9212 135.156 82.7494C135.204 82.5292 135.246 82.3391 135.342 82.1489C135.512 81.641 135.512 81.1331 135.002 80.7945C134.491 80.2866 133.981 80.1173 133.301 80.2866C133.216 80.2866 133.131 80.3289 133.046 80.3713C132.961 80.4136 132.876 80.4559 132.791 80.4559C132.621 79.7787 132.111 79.6094 131.601 79.6094ZM131.771 85.1963C131.601 85.154 131.431 85.1117 131.261 85.027C131.431 85.027 131.431 84.8577 131.261 84.6884L132.281 81.641C132.281 81.4717 132.451 81.3024 132.621 81.3024C132.741 81.3024 132.841 81.2812 132.933 81.2613C133.103 81.225 133.252 81.1931 133.471 81.3024C133.811 81.4717 133.811 81.641 133.811 81.9796V82.1489C133.641 82.5722 133.514 83.0378 133.386 83.5033C133.259 83.9689 133.131 84.4345 132.961 84.8577C132.961 84.9424 132.919 84.9847 132.876 85.027C132.834 85.0694 132.791 85.1117 132.791 85.1963C132.621 85.3656 132.451 85.3656 132.281 85.3656C132.111 85.281 131.941 85.2386 131.771 85.1963ZM130.333 89.7517C130.198 89.7141 130.049 89.6724 129.9 89.5982C130.24 88.4131 130.58 87.3972 130.92 86.3814C131.261 86.3814 131.601 86.5507 131.941 86.72C132.281 86.72 132.451 87.0586 132.281 87.3972C132.183 87.8844 132.029 88.3156 131.883 88.7229C131.776 89.0232 131.673 89.3108 131.601 89.5982C131.601 89.7675 131.431 89.9367 131.091 89.9367H130.75C130.655 89.8417 130.506 89.8 130.333 89.7517Z" fill="#313030"/>
<path d="M124.289 87.3973C124.277 87.4425 124.264 87.4861 124.25 87.5282C124.12 87.3973 124.133 87.3973 124.289 87.3973Z" fill="#313030"/>
<path fill-rule="evenodd" clip-rule="evenodd" d="M124.245 87.5438C124.041 88.1224 123.557 88.4004 122.928 88.2438C122.928 88.2438 122.758 88.2438 122.758 88.0745C122.248 87.7359 122.078 87.3973 122.248 86.8894C122.333 86.4662 122.461 86.0429 122.588 85.6197C122.716 85.1964 122.843 84.7732 122.928 84.3499C122.928 84.1806 122.928 84.1806 123.098 84.0113C122.993 83.9067 122.888 83.8667 122.743 83.8115C122.653 83.7773 122.548 83.7374 122.418 83.6727C122.163 84.2652 121.908 84.8153 121.653 85.3654C121.398 85.9157 121.143 86.4662 120.888 87.0587C120.774 87.0023 120.661 86.9647 120.548 86.9271C120.321 86.8518 120.094 86.7766 119.867 86.5508C119.697 86.5508 119.697 86.3815 119.697 86.2122C119.697 86.1276 119.74 86.0852 119.782 86.0429C119.825 86.0006 119.867 85.9583 119.867 85.8736C120.417 84.7791 120.939 83.6845 121.456 82.6012C122.217 81.0034 122.968 79.4299 123.778 77.9165V77.7472C123.948 77.2393 123.948 77.07 123.608 76.7314C123.778 76.3928 124.119 76.0542 124.459 76.2235C125.139 76.3928 125.479 76.5621 125.479 77.2393H125.989C126.499 77.2393 127.009 77.4086 127.519 77.7472C128.03 78.0858 128.2 78.5937 128.03 79.2709C128.03 79.3556 127.987 79.4402 127.945 79.5249C127.902 79.6095 127.86 79.6942 127.86 79.7788C127.604 80.3713 127.307 80.9639 127.009 81.5564C126.712 82.149 126.414 82.7416 126.159 83.3341C125.989 83.6727 125.819 84.0113 125.479 84.1806C125.383 84.2757 125.234 84.3174 125.062 84.3656C124.927 84.4033 124.778 84.445 124.629 84.5192C124.629 84.6885 124.629 84.6885 124.459 84.8577C124.374 85.1117 124.289 85.408 124.204 85.7043C124.119 86.0005 124.033 86.2969 123.948 86.5508V86.8894C123.948 87.2128 123.948 87.3817 124.245 87.5438ZM122.928 82.6569C123.013 82.7416 123.141 82.7839 123.268 82.8262C123.396 82.8685 123.523 82.9109 123.608 82.9955C124.119 83.1648 124.459 83.1648 124.799 82.6569C125.054 82.149 125.309 81.5988 125.564 81.0486C125.819 80.4984 126.074 79.9481 126.329 79.4402C126.329 79.4402 126.329 79.2709 126.499 79.2709C126.669 78.9323 126.499 78.763 126.329 78.5937C125.989 78.4244 125.819 78.4244 125.479 78.4244C125.309 78.4244 125.139 78.5937 124.969 78.763C124.629 79.3556 124.331 79.9905 124.033 80.6253L124.033 80.6261C123.736 81.2607 123.438 81.8954 123.098 82.4876L122.928 82.6569Z" fill="#313030"/>
<path d="M124.245 87.5438C124.259 87.5514 124.273 87.559 124.289 87.5666L124.25 87.5282L124.245 87.5438Z" fill="#313030"/>
<path fill-rule="evenodd" clip-rule="evenodd" d="M141.293 93.4922C141.803 93.4922 142.144 93.1536 142.144 92.6457C141.633 92.4764 141.633 92.307 141.633 91.6299V91.122C141.973 89.5983 142.314 87.9053 142.484 86.3816C142.654 85.5351 142.824 84.5193 142.994 83.5035C142.994 82.657 142.654 82.1491 141.973 81.8105C141.463 81.6412 140.953 81.4718 140.443 81.4718C139.423 81.4718 138.743 81.9797 138.573 82.9955C138.402 84.1807 138.232 85.1964 138.062 86.2122C137.892 86.9741 137.765 87.7783 137.637 88.5824C137.51 89.3866 137.382 90.1908 137.212 90.9527C137.212 91.122 137.17 91.3336 137.127 91.5452C137.085 91.7568 137.042 91.9685 137.042 92.1378C137.042 92.4763 137.042 92.6457 137.382 92.6457H138.402C138.487 91.9685 138.615 91.2489 138.743 90.5294C138.87 89.8099 138.998 89.0903 139.083 88.4131C139.338 88.4978 139.593 88.5401 139.848 88.5825C140.103 88.6248 140.358 88.6671 140.613 88.7518C140.528 89.175 140.486 89.5559 140.443 89.9369C140.401 90.3178 140.358 90.6987 140.273 91.122C140.273 91.3759 140.23 91.5875 140.188 91.7992C140.145 92.0108 140.103 92.2224 140.103 92.4763C140.103 93.1535 140.443 93.4922 140.953 93.4922H141.293ZM140.953 87.3973V87.736C140.668 87.665 140.413 87.6238 140.188 87.5874C139.875 87.5369 139.62 87.4957 139.423 87.3973C139.423 87.1434 139.465 86.8895 139.508 86.6355C139.55 86.3816 139.593 86.1276 139.593 85.8736C139.593 85.0271 139.763 84.1806 139.933 83.3341C139.933 82.8262 140.103 82.657 140.443 82.657C140.953 82.657 141.293 82.657 141.463 82.9955C141.633 83.1648 141.633 83.3341 141.633 83.5033C141.293 84.8577 141.123 86.0429 140.953 87.3973Z" fill="#313030"/>
<path d="M116.126 83.6727C115.786 84.0113 115.616 84.1806 115.106 84.1806C114.596 84.0113 114.256 83.6727 114.256 83.1648C113.406 83.3341 112.725 82.8262 112.215 82.3183C111.875 81.9797 111.875 81.4718 112.045 81.1332C112.13 81.0486 112.173 80.9216 112.215 80.7946C112.258 80.6677 112.3 80.5407 112.385 80.456C113.916 78.2551 115.446 76.0542 116.806 73.8533C116.806 73.7687 116.849 73.7263 116.891 73.684C116.934 73.6417 116.976 73.5994 116.976 73.5147C117.147 73.1761 117.147 73.0068 116.806 72.8375L116.636 72.6682C116.806 72.3296 117.147 72.1603 117.657 72.1603C117.827 72.1603 118.167 72.3296 118.337 72.4989C118.677 72.6682 118.677 73.0068 118.507 73.3454C118.402 73.4501 118.362 73.5547 118.306 73.6993C118.272 73.7887 118.232 73.8933 118.167 74.0226C117.402 75.1231 116.636 76.2658 115.871 77.4086C115.106 78.5512 114.341 79.6943 113.576 80.7946C113.576 80.8793 113.533 80.9216 113.491 80.9639C113.448 81.0063 113.406 81.0486 113.406 81.1332C113.235 81.4718 113.235 81.6411 113.576 81.8104C113.916 82.149 114.256 82.149 114.596 81.9797C114.766 81.9797 114.766 81.8104 114.766 81.8104C116.296 79.4402 117.827 77.2393 119.527 74.8691C119.697 74.5306 119.867 74.1919 120.207 73.8533C120.547 74.0226 120.888 74.1919 121.228 74.5305C121.313 74.6152 121.355 74.6575 121.355 74.6998C121.355 74.7422 121.313 74.7845 121.228 74.8691C121.228 74.8691 121.058 75.0384 121.058 75.2077L121.057 75.2085L121.057 75.2092C119.356 77.7482 117.656 80.2872 115.956 82.657C115.956 82.7416 115.914 82.7839 115.871 82.8262C115.829 82.8686 115.786 82.9109 115.786 82.9955C115.616 83.1648 115.786 83.3341 116.126 83.6727Z" fill="#313030"/>
<path fill-rule="evenodd" clip-rule="evenodd" d="M185.42 82.6568C185.463 82.6992 185.506 82.7415 185.506 82.8261C186.186 82.3182 186.696 81.9796 187.546 81.641L188.056 81.1331C188.736 80.2866 188.736 79.6094 188.226 78.7629C186.866 76.5621 185.336 74.5306 183.805 72.499L183.295 71.9909C182.955 71.6523 182.445 71.6523 181.935 71.8216C181.254 71.9909 180.744 72.3295 180.574 73.0067C180.404 73.176 180.404 73.176 180.404 73.3453C180.064 73.176 179.894 73.176 179.554 73.3453C179.384 73.3453 179.214 73.5146 179.044 73.6839C178.704 74.0225 178.704 74.3611 179.044 74.6997H179.214C179.554 74.5304 179.724 74.5304 179.894 74.869C179.894 74.9537 179.936 74.996 179.979 75.0383C180.021 75.0807 180.064 75.123 180.064 75.2076C180.914 76.3921 181.806 77.6188 182.698 78.8455L182.701 78.8497C183.593 80.0764 184.486 81.3031 185.335 82.4875C185.335 82.5722 185.378 82.6145 185.42 82.6568ZM186.186 80.8792C186.058 80.9638 185.931 81.0485 185.846 81.1331C185.846 81.0486 185.846 81.0061 185.824 80.985C185.803 80.9638 185.761 80.9638 185.676 80.9638C184.91 79.8634 184.145 78.8053 183.38 77.7472C182.615 76.689 181.85 75.6309 181.084 74.5304C181.084 74.4011 181.059 74.2965 181.038 74.2071C181.004 74.0625 180.979 73.9579 181.084 73.8532C181.084 73.5146 181.254 73.3453 181.594 73.176C181.934 73.176 182.105 73.176 182.275 73.3453L182.445 73.5146C182.732 73.9077 183.027 74.3084 183.326 74.715L183.326 74.716C184.444 76.2353 185.623 77.8377 186.696 79.4401C187.036 79.948 187.036 80.2866 186.526 80.6252C186.441 80.7099 186.313 80.7945 186.186 80.8792Z" fill="#313030"/>
<path fill-rule="evenodd" clip-rule="evenodd" d="M178.023 87.0587C177.513 87.0587 177.003 86.8893 176.833 86.3814C176.748 86.2968 176.705 86.2121 176.663 86.1275C176.62 86.0428 176.578 85.9582 176.493 85.8735C175.898 84.7731 175.303 83.6304 174.707 82.4876C174.112 81.3448 173.517 80.202 172.922 79.1015C172.922 79.1015 172.922 78.9322 172.752 78.9322C172.412 78.255 172.412 77.4085 173.092 76.9006C173.602 76.3927 174.282 76.0541 174.963 75.8848C175.643 75.8848 175.983 76.0541 176.323 76.562C176.493 76.7313 176.493 76.9006 176.493 76.9006C177.088 78.0011 177.683 79.1438 178.278 80.2866C178.874 81.4294 179.469 82.5722 180.064 83.6726C180.574 84.6884 180.234 85.535 179.554 86.0429C179.384 86.72 178.534 87.0587 178.023 87.0587ZM178.363 85.7042C179.044 85.7042 179.384 85.027 179.044 84.5191C178.363 83.334 177.683 81.9796 177.173 80.7945L175.643 77.7471C175.473 77.4085 175.133 77.2392 174.792 77.4085C174.622 77.4085 174.452 77.5778 174.282 77.7471C174.112 77.9164 174.112 78.255 174.112 78.4243C174.112 78.4243 174.112 78.5936 174.282 78.5936C175.473 80.7944 176.663 82.9955 177.853 85.3656C177.853 85.4503 177.896 85.4926 177.938 85.5349C177.981 85.5773 178.023 85.6196 178.023 85.7042C177.853 85.7042 178.023 85.8735 178.363 85.7042Z" fill="#313030"/>
<path fill-rule="evenodd" clip-rule="evenodd" d="M168.501 89.4289C168.671 90.1061 169.181 90.4447 170.201 90.4447C170.711 90.4447 171.392 90.2754 172.072 89.9368C172.582 89.5982 172.752 89.0903 172.752 88.4131C172.752 88.3285 172.709 88.2438 172.667 88.1592C172.624 88.0745 172.582 87.9899 172.582 87.9052C172.157 86.7201 171.732 85.4927 171.307 84.2653C170.881 83.0378 170.456 81.8104 170.031 80.6253C170.031 80.5406 169.989 80.456 169.946 80.3713C169.904 80.2867 169.861 80.202 169.861 80.1174C169.521 79.6095 169.181 79.2709 168.671 79.2709C167.651 79.1016 166.8 79.4402 166.12 80.1174C165.78 80.456 165.61 80.7946 165.61 81.1332C165.61 81.4718 165.61 81.6411 165.78 81.9797C166.46 83.6727 167.14 85.535 167.821 87.3973C167.991 88.0744 168.161 88.7518 168.501 89.4289ZM167.14 80.6253C167.481 80.456 167.651 80.456 167.821 80.456C168.161 80.456 168.331 80.456 168.331 80.7946C168.501 81.3025 168.713 81.8527 168.926 82.4029C169.139 82.9532 169.351 83.5034 169.521 84.0113C169.776 84.6883 169.989 85.3231 170.201 85.9579C170.414 86.5927 170.626 87.228 170.881 87.9052V88.0745C171.222 88.7517 170.881 89.2596 170.201 89.2596C169.861 89.2596 169.691 89.0903 169.521 88.7517C169.436 88.4131 169.309 88.1168 169.181 87.8206C169.053 87.5243 168.926 87.228 168.841 86.8894C168.161 85.1975 167.481 83.3365 166.802 81.4754L166.8 81.4718V81.3025C166.8 81.1332 166.8 80.7946 167.14 80.6253Z" fill="#313030"/>
<path d="M134.379 24.1341C135.1 27.3172 135.84 30.5836 136.702 33.7291C136.617 33.7291 136.532 33.7715 136.447 33.8138C136.362 33.8561 136.277 33.8984 136.192 33.8984C136.122 33.8984 136.051 33.9275 135.969 33.9615C135.852 34.0096 135.711 34.0677 135.512 34.0677C135.172 34.0677 135.002 34.0677 135.002 33.7291C134.917 33.2212 134.789 32.671 134.662 32.1208C134.534 31.5706 134.407 31.0203 134.321 30.5124C134.093 29.3737 133.83 28.2349 133.563 27.0809C133.236 25.6616 132.902 24.2186 132.621 22.7246V22.5553C132.451 22.6118 132.281 22.6494 132.111 22.687C131.771 22.7622 131.431 22.8375 131.091 23.0632L130.58 22.0474C130.58 21.8781 130.58 21.7088 130.921 21.7088C131.176 21.6242 131.388 21.5818 131.601 21.5395C131.813 21.4972 132.026 21.4549 132.281 21.3702C132.706 21.2856 133.089 21.2009 133.471 21.1163C133.854 21.0316 134.236 20.947 134.662 20.8623C135.002 20.8623 135.342 20.6931 135.682 20.5238C135.852 20.8624 136.022 21.2009 136.022 21.5395C136.022 21.7088 136.022 21.8781 135.682 21.8781C135.491 21.9732 135.3 22.0149 135.079 22.0631C134.906 22.1008 134.715 22.1425 134.492 22.2167C134.322 22.2167 134.151 22.2167 133.981 22.386C134.114 22.9649 134.246 23.5483 134.379 24.1341Z" fill="#313030"/>
<path d="M159.148 81.6411C158.638 81.8104 158.298 82.149 158.468 82.8262C158.621 82.8262 158.74 82.8604 158.87 82.898C159.03 82.9442 159.208 82.9955 159.488 82.9955V83.1648C159.573 83.7573 159.701 84.3499 159.829 84.9424C159.956 85.535 160.084 86.1275 160.169 86.7201C160.339 87.5665 160.509 88.3706 160.679 89.1747C160.849 89.979 161.019 90.7832 161.189 91.6298C161.189 91.9684 161.189 92.1377 161.359 92.307C161.529 92.4762 161.699 92.6456 162.039 92.6456C162.209 92.6456 162.549 92.6456 162.719 92.4763C163.059 92.307 163.229 91.9684 163.059 91.4605H162.889C162.727 91.4605 162.642 91.4605 162.579 91.4235C162.51 91.3831 162.468 91.2986 162.379 91.1219V90.9526C162.379 90.4447 162.209 89.7676 162.039 89.0905C161.954 88.8366 161.912 88.6247 161.869 88.4131C161.827 88.2015 161.784 87.9898 161.699 87.7359H161.869C162.124 87.6512 162.337 87.6089 162.549 87.5666C162.762 87.5243 162.974 87.4819 163.229 87.3973C163.4 87.3973 163.4 87.228 163.4 87.0587C163.4 86.8894 163.23 86.5508 163.059 86.2122C162.696 86.4534 162.333 86.5227 161.908 86.6039C161.736 86.6367 161.555 86.6714 161.359 86.7201C161.189 86.0429 161.061 85.3657 160.934 84.6885C160.806 84.0113 160.679 83.3341 160.509 82.6569C160.679 82.4876 160.849 82.4876 161.019 82.4876C161.359 82.4876 161.869 82.4876 162.209 82.3183C162.549 82.149 162.549 82.1489 162.549 81.9797C162.549 81.6411 162.379 81.3026 162.209 80.9641C161.954 81.0487 161.742 81.0908 161.529 81.1332C161.317 81.1755 161.104 81.2178 160.849 81.3025C160.594 81.3871 160.296 81.4294 159.999 81.4717C159.701 81.5141 159.403 81.5564 159.148 81.6411Z" fill="#313030"/>
<path d="M125.479 37.2844C125.309 37.3691 125.096 37.4961 124.884 37.623C124.671 37.75 124.459 37.877 124.289 37.9616C124.119 37.9616 123.948 37.9616 123.948 37.7923C123.948 37.7923 123.949 37.623 123.778 37.623C122.418 34.4063 121.058 31.1896 119.527 27.9729C119.417 27.6449 119.237 27.317 119.031 26.9434C118.918 26.7385 118.798 26.5198 118.677 26.2799C118.677 26.1953 118.635 26.153 118.592 26.1106C118.55 26.0683 118.507 26.026 118.507 25.9413C118.677 25.8567 118.89 25.7297 119.102 25.6027C119.315 25.4757 119.527 25.3488 119.697 25.2641C119.867 25.2641 120.037 25.2641 120.037 25.4334C120.037 25.5181 120.08 25.5604 120.122 25.6027C120.165 25.645 120.207 25.6874 120.207 25.772C121.568 28.9887 122.928 32.2054 124.459 35.4221C124.544 35.6761 124.671 35.93 124.799 36.184C124.926 36.4379 125.054 36.6919 125.139 36.9458C125.479 36.9458 125.479 37.1151 125.479 37.2844Z" fill="#313030"/>
<path d="M160.849 42.8713H167.821V45.0722H160.849V42.8713Z" fill="#313030"/>
</svg>
