<svg width="296" height="112" viewBox="0 0 296 112" fill="none" xmlns="http://www.w3.org/2000/svg">
<rect width="296" height="112" fill="white"/>
<path fill-rule="evenodd" clip-rule="evenodd" d="M134.186 40.0804C134.024 40.0402 133.861 40 133.699 40H132.725H132.562C132.075 40.1608 131.588 40.3215 131.101 40.6431C128.99 41.7684 128.503 44.1799 129.964 46.109C130.452 46.7521 130.939 47.2344 131.588 47.7167C131.994 48.0382 132.441 48.3597 132.887 48.6812C133.334 49.0028 133.78 49.3243 134.186 49.6458C134.998 50.2889 135.647 51.0927 135.972 52.218C136.297 53.6649 135.81 54.951 134.348 55.5941C133.049 56.0764 131.913 56.0764 130.614 55.4333C129.964 55.1118 129.477 54.6295 129.153 53.9864C129.065 53.8124 129.024 53.5912 128.98 53.3484C128.943 53.1427 128.902 52.9215 128.828 52.7003C128.828 52.3788 128.828 52.218 128.99 52.218L129.153 52.3788C129.64 53.1826 130.939 53.5042 131.75 52.8611C132.562 52.3788 132.887 50.9319 132.238 50.1281C131.101 48.5205 128.503 48.842 127.691 50.4496C127.204 51.2535 127.204 52.218 127.529 53.0219C127.854 54.951 128.99 56.2371 130.776 56.8802C132.725 57.684 134.673 57.3625 136.621 56.3979C138.732 55.2726 139.706 53.1826 139.544 50.7712C139.382 49.3243 138.57 48.0382 137.758 47.2344C137.347 46.8272 136.87 46.4844 136.37 46.1245C136.08 45.916 135.783 45.7018 135.485 45.466L133.537 44.0191C133.212 43.6976 132.887 43.2153 132.725 42.733C132.562 41.7684 133.049 41.2861 133.861 41.2861C134.673 41.4469 135.323 41.7684 135.81 42.2507C136.297 42.733 136.621 43.2153 136.784 43.6976C136.819 43.7328 136.847 43.7681 136.872 43.7999C136.962 43.9134 137.017 43.9839 137.271 43.8583C137.352 43.7779 137.474 43.7378 137.596 43.6976C137.717 43.6574 137.839 43.6172 137.92 43.5368C138.083 43.5368 138.083 43.376 138.083 43.2153C137.92 42.733 137.799 42.2507 137.677 41.7684C137.555 41.2861 137.433 40.8038 137.271 40.3215C137.271 40.1608 136.946 40 136.784 40.1608L136.459 40.4823C136.134 40.8038 135.972 40.8038 135.81 40.6431C135.647 40.5627 135.444 40.4823 135.241 40.4019C135.038 40.3215 134.835 40.2411 134.673 40.1608C134.511 40.1608 134.348 40.1206 134.186 40.0804ZM138.083 50.9319C138.083 51.575 138.083 52.218 137.758 52.7003C137.596 51.575 137.271 50.6104 136.621 49.8066C136.378 49.5654 136.134 49.3645 135.891 49.1635L135.891 49.1635C135.647 48.9625 135.404 48.7616 135.16 48.5205C134.673 48.1186 134.186 47.7568 133.699 47.3951L133.699 47.395C133.212 47.0334 132.725 46.6717 132.238 46.2698C131.75 45.7875 131.263 45.3052 130.939 44.8229C130.614 44.1799 130.452 43.5368 130.939 42.733V43.0545C131.101 43.8583 131.588 44.3406 132.075 44.8229C132.887 45.3052 133.699 45.9483 134.511 46.5913C135.485 47.2344 136.297 47.8774 136.946 48.6812C137.596 49.3243 137.92 49.9674 138.083 50.9319ZM223 50.4496V49.4851V47.5559C223 47.0736 223 46.7521 222.838 46.4305C222.513 44.5014 221.863 43.0545 220.402 41.7684C219.266 40.9646 218.129 40.3215 216.668 40.1608C216.181 40 215.856 40 215.531 40H214.719C214.395 40 214.07 40 213.745 40.1608C210.823 40.6431 208.874 42.2507 207.9 44.9837C207.413 46.2698 207.413 47.5559 207.413 49.0028C207.413 50.2889 207.575 51.4142 208.062 52.5396C208.874 54.6295 210.335 56.2371 212.609 56.8802C214.232 57.3625 215.856 57.3625 217.48 57.041C218.778 56.7194 220.077 56.0764 221.052 54.951C222.188 53.6649 222.675 52.218 223 50.4496ZM211.634 51.4142C211.634 50.4496 211.634 49.6458 211.472 48.6812C211.551 48.0585 211.591 47.4357 211.631 46.8312L211.631 46.8305L211.631 46.8301L211.631 46.8296L211.631 46.8291L211.631 46.8286L211.631 46.8281L211.631 46.8276C211.673 46.185 211.713 45.563 211.797 44.9837C211.959 44.3406 212.121 43.6976 212.446 43.2153C213.096 41.9292 214.07 41.4469 215.369 41.4469C216.505 41.6076 217.48 42.0899 217.967 43.0545C218.291 43.6976 218.454 44.5014 218.616 45.3052C218.778 47.3951 218.778 49.3243 218.616 51.4142C218.616 52.218 218.291 53.1826 217.967 53.9864C217.48 54.951 216.83 55.5941 215.694 55.7548C214.07 56.0764 212.933 55.4333 212.284 53.8257L212.284 53.8256C211.959 53.0218 211.634 52.218 211.634 51.4142ZM220.889 52.3788C220.564 53.1826 220.077 53.8257 219.428 54.4687C219.59 53.8257 219.753 53.1826 219.753 52.8611C220.077 51.4142 220.24 50.1281 220.24 48.6812C220.077 46.7521 219.915 45.1444 219.266 43.376C219.266 43.2957 219.225 43.2153 219.184 43.1349C219.144 43.0545 219.103 42.9741 219.103 42.8937C219.103 42.8134 219.063 42.733 219.022 42.6526L219.022 42.6525C218.981 42.5722 218.941 42.4918 218.941 42.4115C219.022 42.4115 219.063 42.4516 219.103 42.4918C219.144 42.532 219.184 42.5722 219.266 42.5722C219.915 43.0545 220.402 43.6976 220.727 44.5014C221.376 46.109 221.701 47.7167 221.539 49.4851C221.539 50.4496 221.376 51.4142 220.889 52.3788ZM210.011 48.5205C210.011 50.6104 210.173 52.7003 211.147 54.7903C210.498 54.1472 210.011 53.6649 209.686 53.0219C209.199 52.0573 209.037 50.9319 208.874 49.8066C208.712 48.6812 208.712 47.7167 208.874 46.7521C209.199 45.3052 209.686 43.8583 210.823 42.733L211.147 42.4115C211.147 42.2507 211.31 42.2507 211.31 42.2507C210.335 44.3406 210.011 46.4305 210.011 48.5205ZM72 40.4823C72.1623 40.3215 72.3247 40.3215 72.4871 40.3215H78.4946C78.8193 40.3215 78.9817 40.4823 78.9817 40.8038V41.4469C78.9817 41.6076 78.9817 41.6076 78.657 41.6076H78.0075C77.8451 41.6076 77.6828 41.7684 77.6828 41.9292V42.0899V54.951V55.1118C77.6828 55.2725 77.8451 55.4333 78.0075 55.4333H78.657C78.9817 55.4333 78.9817 55.5941 78.9817 55.7548V56.3979C78.9817 56.7194 78.8193 56.8802 78.4946 56.8802H73.1365H72.4871C72.3247 56.8802 72.1623 56.8802 72 56.7194V55.9156C72.1623 55.7548 72.3247 55.7548 72.6494 55.7548H72.9742C73.4613 55.7548 73.6236 55.7548 73.6236 55.1118V52.218V42.0899C73.4613 41.7684 73.2989 41.6076 72.9742 41.6076H72.4871C72.3247 41.7684 72.1623 41.6076 72 41.4469V40.4823ZM74.9226 55.5941H76.2215V41.7684H74.9226V55.5941ZM136.134 71.0273L136.134 71.0274V71.1882H136.459C136.622 71.0274 136.622 71.0274 136.622 70.8667V69.0983V64.7576C136.622 64.5974 136.622 64.517 136.581 64.4767C136.541 64.4361 136.46 64.4361 136.297 64.4361H135.647C135.484 64.4361 135.403 64.4361 135.363 64.4767C135.323 64.517 135.323 64.5974 135.323 64.7576V68.2944V68.4552L135.16 68.2944L134.771 67.8608L134.771 67.8607C133.63 66.5877 132.594 65.4315 131.426 64.2753C131.263 64.1146 131.101 64.1146 130.939 64.1146C130.776 64.1146 130.776 64.2753 130.776 64.4361V68.1337V70.5451C130.776 70.8667 130.939 70.8667 131.101 70.8667H131.751C132.075 70.8667 132.075 70.8667 132.075 70.5451V67.0083V66.6868C133.537 68.1336 134.835 69.5805 136.134 71.0273ZM180.135 71.0274C179.811 70.5451 179.486 70.2236 178.999 69.7413C178.148 68.8992 177.422 68.0572 176.603 67.1081L176.603 67.108L176.348 66.8131L176.239 66.6868C176.239 66.6868 176.239 66.526 176.076 66.526V66.6868V70.5451C176.076 70.7054 176.076 70.7857 176.036 70.8261C175.996 70.8667 175.914 70.8667 175.752 70.8667H175.102C174.94 70.8667 174.777 70.8667 174.777 70.5451V68.1337V64.4361C174.777 64.2753 174.777 64.1146 174.94 64.1146C175.102 64.1146 175.264 64.1146 175.427 64.2753C176.076 64.9183 176.685 65.5612 177.294 66.2041L177.294 66.2045C177.903 66.8476 178.512 67.4906 179.161 68.1337L179.324 68.2944V67.9729V64.4361C179.324 64.1146 179.324 64.1146 179.648 64.1146H180.298C180.46 64.1146 180.623 64.1146 180.623 64.4361V70.5451V70.8667H180.135V71.0274ZM116.245 70.947C116.326 70.9872 116.407 71.0274 116.488 71.0274V70.8667H117.138C117.462 70.8667 117.787 70.7059 118.112 70.5451C118.924 69.9021 119.411 69.0983 119.411 68.1337V65.0792V64.4361C119.411 64.2759 119.411 64.1955 119.371 64.1552C119.33 64.1146 119.249 64.1146 119.086 64.1146H118.437C118.274 64.1146 118.192 64.1146 118.152 64.1552C118.112 64.1955 118.112 64.2759 118.112 64.4361V68.2944C118.112 68.9375 117.787 69.4198 117.3 69.5805C116.813 69.7413 116.163 69.7413 115.839 69.259C115.676 68.9375 115.514 68.616 115.514 68.1337V64.4361C115.514 64.2759 115.514 64.1955 115.474 64.1552C115.433 64.1146 115.352 64.1146 115.189 64.1146H114.54C114.215 64.1146 114.215 64.2753 114.215 64.4361V68.2944C114.215 69.4198 115.027 70.5451 116.001 70.8667C116.082 70.8667 116.163 70.9068 116.245 70.947ZM123.795 71.0274C123.632 71.0274 123.51 70.9872 123.389 70.947C123.267 70.9068 123.145 70.8666 122.983 70.8666C121.521 70.3843 120.547 68.7767 120.71 67.1691C120.872 65.7222 122.171 64.4361 123.632 64.2753C124.606 64.1145 125.581 64.4361 126.392 65.0791C126.555 65.2399 126.555 65.4007 126.392 65.5614L125.905 66.0437C125.743 66.2045 125.581 66.2045 125.418 66.0437C124.769 65.5614 123.957 65.4007 123.145 65.7222C122.171 66.2045 121.846 67.3298 122.009 68.2944C122.333 69.259 123.145 69.902 124.282 69.902C124.769 69.902 125.094 69.7413 125.418 69.4197C125.581 69.259 125.743 69.259 125.905 69.4197L126.392 69.902C126.474 69.9824 126.514 70.0226 126.514 70.0628C126.514 70.103 126.474 70.1432 126.392 70.2236C125.905 70.7059 125.418 70.8666 124.769 71.0274H124.606H123.795ZM109.75 70.8666C109.953 70.9068 110.156 70.947 110.318 71.0274V71.1882H111.455H111.617C112.267 71.0274 112.754 70.8666 113.241 70.3843C113.403 70.2236 113.403 70.0628 113.241 69.902L112.754 69.4198C112.591 69.259 112.429 69.259 112.267 69.4198C111.78 69.902 111.292 70.0628 110.643 69.902C109.831 69.7413 109.019 69.0982 108.857 68.2944C108.695 67.3298 109.019 66.3652 109.669 65.8829C110.481 65.4007 111.455 65.4007 112.267 66.0437C112.429 66.2045 112.429 66.2045 112.591 66.0437L113.078 65.5614C113.173 65.3737 113.213 65.2956 113.197 65.2311C113.185 65.1851 113.146 65.146 113.078 65.0791C112.267 64.4361 111.292 64.1145 110.318 64.2753C108.857 64.4361 107.72 65.7222 107.396 67.1691C107.071 68.6159 107.883 70.0628 109.182 70.7059C109.344 70.7862 109.547 70.8264 109.75 70.8666ZM120.385 52.8611H117.3H116.163C116.001 52.8611 116.001 52.8611 116.001 53.0218C115.92 53.4237 115.839 53.7854 115.757 54.1471L115.757 54.1472C115.676 54.5089 115.595 54.8706 115.514 55.2725C115.514 55.5941 115.514 55.7548 115.839 55.7548H116.488C116.813 55.7548 116.813 55.9156 116.813 56.2371V56.8802C116.813 57.0409 116.65 57.2017 116.488 57.2017H112.916C112.754 57.2017 112.591 57.0409 112.591 56.8802V56.0764C112.591 55.9156 112.754 55.7548 112.916 55.7548H113.566C114.053 55.7548 114.053 55.7548 114.053 55.2725C114.215 54.4687 114.418 53.6247 114.621 52.7807C114.824 51.9367 115.027 51.0927 115.189 50.2889C115.514 48.9229 115.838 47.5971 116.163 46.2713L116.163 46.2698C116.488 44.9435 116.813 43.6172 117.138 42.2507C117.138 41.9292 117.138 41.7684 116.813 41.7684C116.326 41.7684 116.326 41.6076 116.326 41.1253V40.8038C116.326 40.4823 116.488 40.3215 116.813 40.3215H118.112H121.684C122.009 40.3215 122.171 40.4823 122.171 40.643C122.298 41.1952 122.424 41.7435 122.551 42.2891L122.552 42.2946L122.552 42.2973L122.553 42.2986C123.234 45.2441 123.897 48.1113 124.444 51.0927C124.769 52.5396 125.093 53.9864 125.418 55.2725C125.418 55.5941 125.581 55.5941 125.905 55.5941H126.392C126.717 55.5941 126.717 55.7548 126.717 56.0764V56.7194C126.717 57.0409 126.555 57.2017 126.392 57.2017H125.256H120.223C119.898 57.2017 119.735 57.2017 119.735 56.7194V56.0764C119.735 55.7548 119.898 55.7548 120.06 55.7548H120.71C121.034 55.7548 121.034 55.5941 121.034 55.4333C120.943 54.8904 120.8 54.3984 120.664 53.9287L120.664 53.9287C120.558 53.5639 120.456 53.2125 120.385 52.8611ZM119.573 41.7684C120.547 46.4305 121.521 51.0927 122.496 55.5941H123.957C123.408 52.9667 122.807 50.3394 122.213 47.7409L122.213 47.7406L122.213 47.7399L122.213 47.7395L122.213 47.7391L122.213 47.7388L122.213 47.7387L122.213 47.7385L122.213 47.7379L122.213 47.7375L122.213 47.7372C121.753 45.7259 121.297 43.7319 120.872 41.7684H119.573ZM118.436 43.5368C117.787 46.109 117.138 48.842 116.488 51.575H120.223C119.573 48.842 118.924 46.109 118.436 43.5368ZM106.746 52.0573V51.7357C107.558 51.7357 108.207 51.575 108.695 51.4142C109.831 51.2534 110.805 50.7712 111.617 49.9673C112.754 48.842 113.241 47.5559 113.241 46.109C113.241 43.8583 112.267 42.0899 110.156 41.1253C109.019 40.643 107.72 40.3215 106.421 40.3215H101.388C101.226 40.3215 101.063 40.4823 101.063 40.643V41.2861C101.063 41.5215 101.15 41.5845 101.261 41.6645C101.301 41.6938 101.345 41.7253 101.388 41.7684H102.038C102.362 41.7684 102.525 41.9292 102.525 42.2507V47.3951V54.951C102.525 55.2725 102.362 55.4333 102.038 55.4333H101.55C101.388 55.4333 101.226 55.5941 101.226 55.9156V56.5587C101.226 56.7194 101.226 56.8802 101.55 56.8802H107.883C108.045 56.8802 108.207 56.7194 108.207 56.5587V55.9156C108.207 55.7548 108.207 55.5941 107.883 55.5941H107.233C106.909 55.5941 106.746 55.4333 106.746 55.1118V52.0573ZM106.746 50.4496V41.7684C107.396 41.7684 107.883 41.7684 108.37 42.0899C109.506 42.4114 110.318 42.8937 111.13 43.6976C111.78 44.5014 111.942 45.466 111.942 46.4305C111.942 46.9128 111.78 47.5559 111.617 48.0382C111.292 48.842 110.805 49.3243 109.993 49.8066C109.019 50.2889 107.883 50.4496 106.746 50.4496ZM103.986 41.7684H105.285V55.5941H103.986V41.7684ZM189.228 49.8066C189.228 50.2889 189.269 50.8114 189.309 51.3338L189.309 51.3342C189.35 51.8565 189.39 52.3789 189.39 52.8611C189.39 53.3434 189.553 53.9865 189.877 54.4687C190.364 55.2726 191.014 55.7549 191.826 55.9156C192.8 56.0764 193.612 55.9156 194.424 55.4333C194.911 55.1118 195.235 54.6296 195.56 54.1473L195.56 54.1472C195.723 53.8257 195.723 53.5042 195.398 53.3434C195.398 53.3434 195.235 53.1826 195.073 53.1826C194.261 52.8611 193.937 52.0573 194.099 51.2535C194.261 50.4496 195.073 49.9674 195.885 49.9674C196.697 49.9674 197.346 50.6104 197.509 51.4142C197.671 52.0573 197.509 52.8611 197.346 53.5042C197.184 54.4687 196.697 55.2726 196.047 56.0764C195.235 56.8802 194.424 57.2017 193.449 57.3625C191.501 57.5233 189.877 57.041 188.254 55.9156C187.117 54.951 186.305 53.6649 185.818 52.218C185.006 49.4851 185.006 46.9128 186.143 44.3406C186.955 42.2507 188.578 40.9646 190.689 40.3215C192.151 40 193.612 40.1608 194.911 40.6431C195.235 40.8038 195.398 40.8038 195.56 40.4823L195.885 40.1608C196.047 40 196.21 40.1608 196.372 40.3215C196.534 41.2861 196.697 42.2507 197.021 43.2153C197.021 43.376 197.021 43.5368 196.697 43.6976C196.616 43.6976 196.494 43.7378 196.372 43.778C196.25 43.8181 196.128 43.8583 196.047 43.8583C195.885 43.8583 195.723 43.8583 195.56 43.6976C195.56 43.5092 195.504 43.376 195.458 43.2657C195.426 43.1877 195.398 43.1211 195.398 43.0545C194.911 41.9292 193.937 41.4469 192.8 41.4469C191.826 41.4469 191.176 41.9292 190.689 42.5722C190.04 43.376 189.877 44.3406 189.715 45.3052C189.634 45.7874 189.593 46.2696 189.553 46.7518L189.553 46.7521C189.512 47.2344 189.471 47.7167 189.39 48.199C189.39 48.842 189.39 49.3243 189.228 49.8066ZM189.066 42.2507L188.903 42.4115C187.604 43.6976 186.955 45.3052 186.792 47.0736C186.63 48.3597 186.63 49.4851 186.955 50.7712C186.955 51.8965 187.28 52.8611 187.929 53.8257C188.01 53.9864 188.091 54.1069 188.172 54.2275L188.173 54.2276L188.173 54.2277C188.254 54.3482 188.335 54.4688 188.416 54.6295C187.442 50.4496 187.604 46.2698 189.066 42.2507ZM169.744 47.0736H168.77L168.607 42.0899C168.607 41.9292 168.77 41.7684 168.932 41.7684H169.419H172.667C172.991 41.7684 173.154 41.9292 173.154 42.2507V42.733C173.154 43.0545 173.316 43.2153 173.641 43.2153H174.29C174.615 43.2153 174.777 43.0545 174.777 42.733V40.8038C174.777 40.4823 174.615 40.3215 174.29 40.3215H172.18H163.737C163.412 40.3215 163.249 40.3215 163.249 40.643V41.2861C163.249 41.4469 163.412 41.6076 163.574 41.6076H164.061C164.548 41.6076 164.548 41.7684 164.548 42.0899V55.4333V55.5941C164.548 55.7548 164.386 55.9156 164.224 55.9156H163.737C163.412 55.9156 163.249 56.0764 163.249 56.3979V57.0409C163.249 57.2017 163.249 57.3625 163.574 57.3625H169.906C170.069 57.3625 170.231 57.2017 170.231 56.8802V56.2371C170.231 55.9156 170.069 55.7548 169.744 55.7548H169.095C168.77 55.7548 168.607 55.5941 168.607 55.2725V48.842V48.5205H168.932H171.368C171.692 48.5205 171.855 48.3597 171.855 48.0382V47.5559C171.855 47.2344 171.692 47.0736 171.368 47.0736H169.744ZM166.01 41.7684H167.309V55.5941H166.01V41.7684ZM148.474 41.6076V41.7684V54.951C148.474 55.4333 148.637 55.4333 148.961 55.4333H149.448C149.773 55.4333 149.935 55.5941 149.935 55.9156V56.3979C149.935 56.7194 149.773 56.8802 149.448 56.8802H147.338H143.278C142.954 56.8802 142.791 56.7194 142.791 56.3979V55.9156C142.791 55.5941 142.954 55.4333 143.278 55.4333H143.928C144.253 55.4333 144.253 55.2726 144.253 55.1118V54.951V41.9292V41.7684H144.09H141.98C141.655 41.7684 141.492 41.9292 141.492 42.2507V42.733C141.492 43.0545 141.33 43.0545 141.168 43.0545H140.518C140.194 43.0545 140.031 42.8937 140.031 42.5722V40.4823C140.031 40.1608 140.194 40 140.518 40H152.533C152.858 40 153.02 40.1608 153.02 40.4823V42.4115C153.02 42.733 152.858 42.8937 152.533 42.8937H151.884C151.559 42.8937 151.397 42.733 151.397 42.4115V41.7684C151.397 41.6076 151.234 41.4469 151.072 41.4469C150.26 41.6076 149.448 41.6076 148.474 41.6076ZM145.714 55.5941H147.013V41.7684H145.714V55.5941ZM82.229 42.2507V48.6812H82.0667V55.1118C82.0667 55.4333 81.9043 55.5941 81.5796 55.5941H81.0925C81.049 55.6371 81.0055 55.6687 80.9651 55.698C80.8548 55.7779 80.7678 55.841 80.7678 56.0764V56.5587C80.7678 56.8802 80.9301 57.0409 81.2549 57.0409H88.0742H91.8086C91.971 57.0409 92.1333 57.0409 92.1333 56.7194V54.6295C92.1333 54.4687 91.971 54.308 91.8086 54.308H91.1592C90.9968 54.308 90.8344 54.4687 90.8344 54.6295V55.2725C90.8344 55.5941 90.6721 55.7548 90.3473 55.7548H86.9376C86.6129 55.7548 86.4505 55.5941 86.4505 55.2725V50.7712V42.0899C86.4505 41.7684 86.6129 41.6076 86.9376 41.6076H87.4247C87.7495 41.6076 87.7495 41.6076 87.9118 41.4469V40.8038C87.9118 40.4823 87.7495 40.3215 87.4247 40.3215H81.9043H81.0925C80.9301 40.3215 80.7678 40.4823 80.7678 40.643V41.2861C80.7678 41.6076 80.9301 41.6076 81.0925 41.6076H81.7419C82.0667 41.6076 82.229 41.7684 82.229 42.2507ZM84.9893 55.5941H83.6903V41.7684H84.9893V55.5941ZM160.165 48.6812V55.2725C160.165 55.5941 160.327 55.7548 160.652 55.7548H161.139C161.463 55.7548 161.463 55.9156 161.463 56.0764V56.7194C161.463 57.0409 161.301 57.0409 161.139 57.0409H154.806C154.482 57.0409 154.482 56.8802 154.482 56.7194V56.0764C154.482 55.7548 154.644 55.5941 154.969 55.5941H155.456C155.781 55.5941 155.943 55.4333 155.943 55.1118V42.733V42.0899C155.943 41.7684 155.781 41.6076 155.456 41.6076H154.806C154.482 41.6076 154.319 41.4469 154.319 41.2861V40.643C154.319 40.4823 154.482 40.3215 154.644 40.3215H160.976C161.139 40.3215 161.301 40.4823 161.301 40.643V41.4469C161.626 41.6076 161.463 41.6076 161.139 41.6076H160.489C160.165 41.6076 160.165 41.7684 160.165 41.9292V48.6812ZM158.703 41.7684H157.404V55.5941H158.703V41.7684ZM182.084 55.1118V48.6812V42.0899C182.084 41.7684 182.084 41.6076 182.571 41.6076H183.058C183.383 41.6076 183.545 41.6076 183.545 41.4469V40.643C183.545 40.4823 183.383 40.3215 183.22 40.3215H176.888C176.726 40.3215 176.563 40.4823 176.563 40.643V41.2861C176.563 41.4469 176.726 41.6076 176.888 41.6076H177.538C177.862 41.6076 178.025 41.7684 178.025 42.0899V55.1118C178.025 55.4333 177.862 55.5941 177.538 55.5941H176.888C176.563 55.5941 176.401 55.7548 176.401 56.0764V56.5587C176.401 56.8802 176.563 57.0409 176.888 57.0409H183.058H183.22C183.383 57.0409 183.545 56.8802 183.545 56.7194V55.9156C183.545 55.7548 183.383 55.5941 183.22 55.5941H182.571C182.246 55.5941 182.084 55.5941 182.084 55.1118ZM179.324 41.7684H180.623V55.5941H179.324V41.7684ZM205.14 48.6812V55.1118C205.14 55.3521 205.14 55.4727 205.2 55.5332C205.261 55.5941 205.383 55.5941 205.627 55.5941H206.276C206.439 55.5941 206.601 55.7548 206.601 55.9156V56.7194C206.601 56.8802 206.439 57.0409 206.276 57.0409H206.114H199.944C199.619 57.0409 199.457 56.8802 199.457 56.5587V56.0764C199.457 55.7548 199.619 55.5941 199.782 55.5941H200.431C200.756 55.5941 200.918 55.4333 200.918 55.1118V42.0899C200.918 41.7684 200.756 41.6076 200.594 41.6076H199.944C199.782 41.6076 199.619 41.4469 199.619 41.2861V40.643C199.619 40.4823 199.782 40.3215 199.944 40.3215H206.276C206.439 40.3215 206.601 40.4823 206.601 40.643V41.4469C206.439 41.6076 206.276 41.6076 206.114 41.6076H205.465C205.14 41.6076 205.14 41.7684 205.14 42.0899V48.6812ZM202.38 55.5941H203.679V41.7684H202.38V55.5941ZM73.1365 66.6868V67.9729H101.226V67.0083C101.226 66.6868 101.226 66.6868 100.901 66.6868H73.2989H73.1365ZM221.863 66.8476H193.774V67.9729H221.863V66.8476ZM172.504 70.3844C172.667 70.7059 172.829 71.0274 173.316 70.8667V70.7059H173.966C174.128 70.7059 174.29 70.7059 174.128 70.3844C173.154 68.4552 172.18 66.3653 171.205 64.2753C171.124 64.2753 171.084 64.2352 171.043 64.195C171.002 64.1548 170.962 64.1146 170.881 64.1146C170.718 64.1146 170.556 64.1146 170.556 64.2753C170.069 65.4006 169.582 66.3651 169.095 67.3296L169.095 67.3299C168.851 67.8925 168.608 68.415 168.364 68.9375C168.12 69.46 167.877 69.9825 167.633 70.5451C167.471 70.7059 167.471 70.8667 167.796 70.8667H168.445C168.608 70.8667 168.77 70.8667 168.77 70.7059C168.77 70.4705 168.857 70.3213 168.967 70.1321C169.008 70.0628 169.051 69.9882 169.095 69.9021C169.188 69.8098 169.228 69.7705 169.275 69.7537C169.311 69.7413 169.35 69.7413 169.419 69.7413H171.53C172.017 69.7413 172.18 69.7413 172.342 70.2236C172.504 70.2236 172.504 70.3844 172.504 70.3844ZM170.231 67.571C170.394 67.2093 170.556 66.8476 170.718 66.526C171.043 67.1691 171.368 67.8121 171.692 68.616H169.744C169.906 68.2944 170.069 67.9327 170.231 67.571ZM187.117 70.8666C186.63 71.0274 186.468 70.7059 186.305 70.3843C186.305 70.2236 186.143 69.902 185.981 69.7413C185.876 69.6375 185.703 69.6677 185.507 69.7022C185.399 69.7211 185.284 69.7413 185.169 69.7413H183.22C183.139 69.7413 183.098 69.7413 183.078 69.7616C183.058 69.7817 183.058 69.8219 183.058 69.902C183.015 69.9879 182.971 70.0623 182.931 70.1314L182.931 70.1317L182.931 70.1319L182.931 70.1321C182.82 70.3213 182.733 70.4705 182.733 70.7059C182.733 70.8666 182.571 71.0274 182.409 71.0274H181.759C181.434 71.0274 181.434 70.8666 181.597 70.7059C181.921 69.902 182.246 69.259 182.733 68.4552C183.058 67.8123 183.342 67.1693 183.626 66.5264L183.626 66.526C183.91 65.883 184.195 65.2399 184.519 64.5968C184.519 64.4975 184.581 64.4595 184.667 64.4071C184.72 64.3747 184.782 64.3367 184.844 64.2753C184.925 64.2753 184.966 64.3155 185.006 64.3557C185.047 64.3959 185.088 64.4361 185.169 64.4361C186.143 66.526 187.117 68.6159 188.091 70.5451C188.254 70.8666 188.091 70.8666 187.929 70.8666H187.117ZM184.519 66.526C184.195 67.3297 183.87 67.9727 183.545 68.6157L183.545 68.6159H185.493C185.169 67.8121 184.844 67.169 184.519 66.526ZM142.304 70.3843C142.467 70.7059 142.629 71.0274 143.116 70.8666H144.09C144.253 70.8666 144.415 70.8666 144.253 70.5451C143.279 68.6161 142.305 66.5264 141.33 64.4367L141.33 64.4361C141.249 64.4361 141.208 64.3959 141.168 64.3557C141.127 64.3155 141.087 64.2753 141.005 64.2753C140.843 64.2753 140.681 64.2753 140.681 64.4361C140.437 64.838 140.234 65.2801 140.031 65.7221C139.828 66.1643 139.625 66.6064 139.382 67.0083C139.138 67.571 138.854 68.1738 138.57 68.7767C138.286 69.3795 138.002 69.9824 137.758 70.5451C137.596 70.7059 137.596 70.8666 137.92 70.8666H138.57C138.732 70.8666 138.895 70.8666 138.895 70.7059C138.895 70.4705 138.982 70.3213 139.092 70.1321C139.132 70.0628 139.176 69.9882 139.219 69.902C139.219 69.8219 139.219 69.7817 139.239 69.7616C139.26 69.7413 139.3 69.7413 139.382 69.7413H141.655C141.98 69.7413 142.142 69.7413 142.142 70.0628C142.142 70.0628 142.304 70.2236 142.304 70.3843ZM140.031 67.571C140.194 67.2092 140.356 66.8475 140.518 66.526C140.843 67.169 141.168 67.8121 141.492 68.6159H139.544C139.706 68.2944 139.869 67.9327 140.031 67.571ZM156.592 69.5805H155.294C155.294 69.5805 155.131 69.5805 155.131 69.7413L155.131 69.7414C154.969 70.0629 154.806 70.3844 154.644 70.5451C154.644 70.7059 154.482 70.7059 154.319 70.7059H153.67C153.345 70.7059 153.345 70.5451 153.508 70.3844C153.832 69.7413 154.116 69.1384 154.401 68.5356C154.685 67.9327 154.969 67.3299 155.294 66.6868C155.456 66.2849 155.659 65.883 155.862 65.481L155.862 65.4808C156.065 65.079 156.268 64.6772 156.43 64.2753C156.43 64.1146 156.592 64.1146 156.755 64.1146C156.836 64.1146 156.877 64.1548 156.917 64.195C156.958 64.2352 156.998 64.2753 157.08 64.2753L157.08 64.2759C158.054 66.3657 159.028 68.4554 160.002 70.3844C160.164 70.7059 160.002 70.7059 159.84 70.7059H159.19C159.028 70.7059 158.866 70.7059 158.866 70.5451C158.822 70.4591 158.779 70.3846 158.738 70.3155L158.738 70.3153L158.738 70.3151C158.628 70.1259 158.541 69.9767 158.541 69.7413C158.541 69.5805 158.378 69.5805 158.378 69.5805H156.592ZM156.592 66.526C156.43 66.8476 156.268 67.2093 156.105 67.571C155.943 67.9327 155.781 68.2944 155.618 68.616H157.567C157.242 67.8122 156.917 67.1692 156.593 66.5262L156.592 66.526ZM149.448 65.4006H150.423V65.5614V70.5451C150.423 70.7053 150.423 70.7857 150.463 70.826C150.503 70.8666 150.584 70.8666 150.747 70.8666H151.397C151.56 70.8666 151.641 70.8666 151.681 70.826C151.722 70.7857 151.722 70.7053 151.722 70.5451V65.7222V65.4006H153.183C153.508 65.4006 153.508 65.2399 153.508 65.0791V64.4361C153.508 64.3559 153.508 64.3158 153.487 64.2956C153.467 64.2753 153.427 64.2753 153.345 64.2753H153.183H149.448C149.286 64.2753 149.204 64.2753 149.164 64.3159C149.124 64.3562 149.124 64.4366 149.124 64.5968V65.0791C149.124 65.2393 149.124 65.3197 149.164 65.3601C149.204 65.4006 149.286 65.4006 149.448 65.4006ZM161.788 69.7413H162.438H164.061C164.224 69.7413 164.386 69.7413 164.386 70.0628V70.7059C164.386 70.786 164.386 70.8262 164.366 70.8464C164.346 70.8667 164.305 70.8667 164.224 70.8667H160.814C160.751 70.8667 160.712 70.8667 160.689 70.8479C160.652 70.8182 160.652 70.7419 160.652 70.5451V64.2754C160.652 64.1146 160.652 63.9538 160.814 63.9538H161.463C161.788 63.9538 161.788 63.9538 161.788 64.2754V68.9375V69.7413ZM146.851 64.4361V67.4906V67.4908C146.851 68.6161 146.851 69.5806 146.688 70.5451C146.688 70.8667 146.851 70.8667 147.013 70.8667H147.825C148.149 70.8667 148.149 70.7059 148.149 70.5451V69.259V64.4361C148.149 64.2759 148.149 64.1955 148.109 64.1552C148.069 64.1146 147.988 64.1146 147.825 64.1146H147.175C147.012 64.1146 146.931 64.1146 146.891 64.1552C146.851 64.1955 146.851 64.2759 146.851 64.4361ZM165.523 67.4906V64.4361C165.523 64.2759 165.523 64.1955 165.563 64.1552C165.603 64.1146 165.684 64.1146 165.847 64.1146H166.334C166.497 64.1146 166.578 64.1146 166.619 64.1552C166.659 64.1955 166.659 64.2759 166.659 64.4361V68.1337V70.5451C166.659 70.7054 166.659 70.7857 166.619 70.8261C166.578 70.8667 166.497 70.8667 166.334 70.8667H165.685C165.523 70.8667 165.36 70.8667 165.36 70.5451V67.4906H165.523ZM127.854 64.4361V67.4906V70.5451C127.854 70.7054 127.854 70.7857 127.894 70.8261C127.934 70.8667 128.016 70.8667 128.178 70.8667H128.828C129.153 70.8667 129.153 70.8667 129.153 70.5451V65.7222V64.4361C129.153 64.1146 129.153 64.1146 128.828 64.1146H128.178C128.016 64.1146 127.934 64.1146 127.894 64.1552C127.854 64.1955 127.854 64.2759 127.854 64.4361Z" fill="#313030"/>
</svg>
